<svg viewBox="0 0 1000 1000" xmlns="http://www.w3.org/2000/svg"><path d="m968.79 782a65.71 65.71 0 0 1 19.29 46.84c-.15 36.42-30.41 65.58-66.83 65.58h-852.61a65.86 65.86 0 0 1 -65.83-64c-1-37.26 29.63-67.74 66.91-67.74h84.78a43.25 43.25 0 0 0 0-86.5h-13.5a100 100 0 0 1 -100-99.18c-.42-55.43 45.77-100.79 101.2-100.79h72.47c12.18 0 52.32-4.94 60.3-12.92a44 44 0 0 0 12.84-28.61c.05-.85.08-1.71.08-2.58a44.11 44.11 0 0 0 -44.09-44.1h-134.58a104.49 104.49 0 0 1 -36.43-6.52 101.51 101.51 0 0 1 -12-5.35 104.61 104.61 0 0 1 -9.37-179.85c1.64-1.09 3.31-2.14 5-3.13 1.43-.84 2.89-1.65 4.36-2.41a99.85 99.85 0 0 1 12-5.34 104 104 0 0 1 36.43-6.53 29.15 29.15 0 0 0 26.72-17.47 28.83 28.83 0 0 0 2.26-8.51 25.28 25.28 0 0 0 .16-2.77c0-.13 0-.26 0-.39v-20.85a49.9 49.9 0 0 1 45.45-49.75c1.49-.13 3-.2 4.51-.2h293a49.93 49.93 0 0 1 49.91 48.28v1.67s0 1 0 1.42a49.39 49.39 0 0 0 .7 7c.08.49.18 1 .27 1.47.19.93.41 1.86.64 2.77a49.61 49.61 0 0 0 3.09 8.51c.44.94.91 1.87 1.4 2.77.23.43.47.85.72 1.27a49.27 49.27 0 0 0 5.16 7.24 48.6 48.6 0 0 0 4.6 4.7c.73.66 1.48 1.29 2.24 1.91a49.81 49.81 0 0 0 31.11 10.86h146.2c2.87 0 5.7.15 8.5.43a82.59 82.59 0 0 1 29 8.51 84.35 84.35 0 0 1 8.09 4.7 82.65 82.65 0 0 1 10.84 8.5c1.59 1.47 3.13 3 4.58 4.6a.31.31 0 0 1 .1.1 82.49 82.49 0 0 1 6.86 8.5c1.08 1.53 2.1 3.1 3.08 4.7.68 1.12 1.33 2.26 2 3.41q1.35 2.5 2.54 5.1 1.06 2.31 2 4.7a79.49 79.49 0 0 1 2.75 8.5c.42 1.55.79 3.12 1.11 4.7a79.66 79.66 0 0 1 1.27 8.51 81.31 81.31 0 0 1 .4 8.15v68.31a54.52 54.52 0 0 0 54.53 54.55h83a49.2 49.2 0 0 1 .29 98.39c-17.15.1-31.17 13.67-31.17 30.81v98.8a63.44 63.44 0 0 1 -63.44 63.44 43.26 43.26 0 0 0 -43.26 42.91c-.19 24 20 43.59 44 43.59h67.77a65.64 65.64 0 0 1 46.6 19.29z" fill="#212639"/><g fill="#e9ebf4"><rect height="113.57" rx="29.98" transform="matrix(-.94664926 .3222657 -.3222657 -.94664926 921.64 471.92)" width="59.97" x="391.77" y="255.47"/><circle cx="414.36" cy="275.62" r="36.24"/><rect height="49.13" rx="13.6" transform="matrix(-.94664926 .3222657 -.3222657 -.94664926 843.02 384.09)" width="27.21" x="376.11" y="237.27"/></g><path d="m440 366a30 30 0 0 1 -32.45-20l-13.81-40.58-3.47-10.17a.65.65 0 0 0 0-.13 29.75 29.75 0 0 1 -1.6-10.12 27.72 27.72 0 0 1 .43-4.56 12.17 12.17 0 0 1 -1.43-1.69 13.58 13.58 0 0 1 -1.77-3.48l-.19-.56-1.71-5.11-2.87-8.4-2.26-6.66a13.58 13.58 0 0 1 7.08-16.69 13.79 13.79 0 0 0 -4.12.72 13.62 13.62 0 0 0 -8.5 17.28l5.13 15.06a36.1 36.1 0 0 0 6.26 25.5v.13l17.28 50.75a30 30 0 0 0 38 18.71z" fill="#dce0ef"/><g fill="#e9ebf4"><rect height="49.13" rx="11.11" transform="matrix(-.83590317 -.54887693 .54887693 -.83590317 662.18 760.7)" width="22.22" x="433.71" y="256.79"/><path d="m399.57 265.57a16.93 16.93 0 0 1 -3.05-8.31l-.73-7.92-.43-4.57-.21-2.33a17.13 17.13 0 1 1 34.11-3.13l.32 3.41.75 8.24.29 3.17a17.13 17.13 0 0 1 -31.05 11.44z"/><rect height="49.13" rx="11.11" transform="matrix(-.83590317 -.54887693 .54887693 -.83590317 662.18 760.7)" width="22.22" x="433.71" y="256.79"/><path d="m399.57 265.57a16.93 16.93 0 0 1 -3.05-8.31l-.73-7.92-.43-4.57-.21-2.33a17.13 17.13 0 1 1 34.11-3.13l.32 3.41.75 8.24.29 3.17a17.13 17.13 0 0 1 -31.05 11.44z"/></g><path d="m458.3 260.82a11.14 11.14 0 0 0 -11.14-.61 36.27 36.27 0 0 0 -17.58-17.48l-.33-3.42a17.12 17.12 0 0 0 -34.16 2.14 17.12 17.12 0 0 1 29.65-.55 16.81 16.81 0 0 1 2.38 7.26l.32 3.41a32.25 32.25 0 0 1 3.08 1.62 35.93 35.93 0 0 1 11.29 10.35c.25.35.48.7.71 1a36.63 36.63 0 0 1 2.5 4.48 11.12 11.12 0 0 1 11.14.6 11.06 11.06 0 0 1 4.84 7.38l.49-.75a11.11 11.11 0 0 0 -3.19-15.43z" fill="#fff"/><rect fill="#f4f5f9" height="203.99" rx="54.91" transform="matrix(.08732961 .99617947 -.99617947 .08732961 891.63 -146.96)" width="109.83" x="471.1" y="311.09"/><path d="m622.87 431.76a54.94 54.94 0 0 0 -59.18-47.18l-55.79 4.9-16.4 1.43-6.5-14.25-6.58-14.53 16.42-1.45 73.24-6.4a54.9 54.9 0 0 1 59.49 49.91c0 .29.06.57.07.85s0 .55.05.81 0 .71 0 1.06v.59 1.65s0 1.1 0 1.64 0 1.08-.08 1.62c-.05.93-.14 1.85-.24 2.75-.05.41-.09.81-.15 1.21 0 .12 0 .24-.05.36s0 0 0 0a54.66 54.66 0 0 1 -4.3 15.03z" fill="#fff"/><path d="m627.33 416.37c0 .12 0 .24-.05.36a54.9 54.9 0 0 0 -59.2-47.34l-66.62 5.83-16.46 1.44-6.58-14.53 16.42-1.45 73.24-6.4a54.9 54.9 0 0 1 59.49 49.91c0 .29.06.57.07.85s0 .55.05.81 0 .71 0 1.06v.59 1.65s0 1.1 0 1.64 0 1.08-.08 1.62c-.05.93-.14 1.85-.24 2.75.06.41.02.84-.04 1.21z" fill="#fff"/><path d="m612.1 405.81a54.9 54.9 0 0 0 -59.34-50.09l15.54-1.32a54.92 54.92 0 0 1 9.25 109.44l-15.5 1.31a54.91 54.91 0 0 0 50.05-59.34z" fill="#abb3c6"/><rect fill="#f4f5f9" height="187.77" rx="46.47" transform="matrix(.91097184 -.41246855 .41246855 .91097184 -116.5 220.54)" width="92.94" x="406.23" y="286.31"/><path d="m627.61 404.19c-.11-1.26-.26-2.5-.45-3.73 0 .1-.07.2-.11.3a54.86 54.86 0 0 1 -39.21 33.24l-78.34 17.2-13.64 3a54.48 54.48 0 0 1 -29.38-1.62 46.27 46.27 0 0 1 -27.92-20.58l-13.85-22.4-35.43-57.29c.44 1.28 1 2.56 1.53 3.82l39.11 86.4a46.3 46.3 0 0 0 25 23.95 54.56 54.56 0 0 0 28.95 5.38l93.8-8.22a54.86 54.86 0 0 0 49.91-59.49z" fill="#e9ebf4"/><path d="m507.9 389.48-.82.07a22.1 22.1 0 0 1 -22-12.89l-6.58-14.53-17.4-38.44a46.46 46.46 0 0 0 -52.35-26.22 47.13 47.13 0 0 1 5.26-2.81 46.49 46.49 0 0 1 61.51 23.17l19.4 42.85 6.58 14.54z" fill="#fff"/><path d="m438.65 593.38-29.65 40.43-95.69 130.63-68.77-50.39 88.58-120.89 36.77-50.16a42.62 42.62 0 0 1 68.76 50.39z" fill="#f4f5f9"/><path d="m438.65 593.38-125.34 171.06-17.79-13 124.82-170.38a42.68 42.68 0 0 0 -2.22-53.19 42.66 42.66 0 0 1 20.53 65.51z" fill="#dfe3ef"/><path d="m438.65 593.38-29.65 40.43-20.14.92a54.93 54.93 0 0 1 -55.77-41.57l36.8-50.16a42.62 42.62 0 0 1 68.76 50.39z" fill="#dfe3ef"/><g fill="#f4f5f9"><circle cx="522.6" cy="568.49" r="68.02"/><g transform="matrix(.04536299 .99897057 -.99897057 .04536299 1015.34 90.58)"><rect height="203.99" rx="54.91" width="109.83" x="405.37" y="474.52"/><rect height="203.99" rx="54.91" width="109.83" x="405.37" y="474.52"/></g></g><path d="m558.3 594.81a54.87 54.87 0 0 1 -48.49 34.42l-94.08 4.27a54.82 54.82 0 0 1 -49.32-26.19 54.8 54.8 0 0 0 11.86.74l94.06-4.27a54.92 54.92 0 0 0 44.36-83.52 54.94 54.94 0 0 1 41.61 74.55z" fill="#e9ebf4"/><path d="m705.22 285.61h23a20.7 20.7 0 0 1 20.7 20.7v11.69a20.7 20.7 0 0 1 -20.7 20.7h-23a0 0 0 0 1 0 0v-53.09a0 0 0 0 1 0 0z" fill="#e9ebf4" transform="matrix(.99479214 .10192446 -.10192446 .99479214 35.63 -72.52)"/><rect fill="#fff" height="316.69" rx="89.16" transform="matrix(.92809642 .37233994 -.37233994 .92809642 228.78 -184.37)" width="178.32" x="502.59" y="341.82"/><rect fill="#e9ebf4" height="91.82" rx="33.06" transform="matrix(.92809642 .37233994 -.37233994 .92809642 207.99 -171.47)" width="84.54" x="505.68" y="406.88"/><rect fill="#fff" height="70.01" rx="25.84" transform="matrix(.92809642 .37233994 -.37233994 .92809642 207.66 -170.94)" width="67.74" x="512.55" y="417.18"/><path d="m700.26 469.15-51.09 127.35c-18.28 45.57-69.85 68.79-115.58 50.93l-1.31-.52a26.68 26.68 0 0 1 -5.38-46.45 88.75 88.75 0 0 0 30.92-39.36l51.52-128.43a89.14 89.14 0 0 0 -9.55-84.1 89.16 89.16 0 0 1 100.47 120.58z" fill="#f4f5f9"/><path d="m700.26 469.15-51.52 128.43a89.22 89.22 0 0 1 -135.34 38.81 89.17 89.17 0 0 0 94.52-55.19l51.52-128.43a89.19 89.19 0 0 0 -30.16-105.21 89.17 89.17 0 0 1 71 121.59z" fill="#e9ebf4"/><path d="m699.85 372.92a84.52 84.52 0 0 1 -26.63 14.31l-86.38-21.48a84.26 84.26 0 1 1 142.23-38.37 83.87 83.87 0 0 1 -29.22 45.54z" fill="#fff"/><path d="m699.85 372.92a84.52 84.52 0 0 1 -26.63 14.31l-51.8-12.89-34.58-8.59a84.27 84.27 0 0 1 26.44-135.75 84.26 84.26 0 0 1 86.57 143z" fill="#e9ebf4"/><path d="m610.36 330.62h30.23v32.79h-30.23z" fill="#f5b5a9" transform="matrix(.28501926 -.95852179 .95852179 .28501926 114.6 847.66)"/><ellipse cx="605.65" cy="282.9" fill="#24364f" rx="20.15" ry="10.03" transform="matrix(.28501926 -.95852179 .95852179 .28501926 161.88 782.81)"/><path d="m645.5 337.2-3.26 11a46.48 46.48 0 0 1 -28.78 8.58 45.4 45.4 0 0 1 -7.7-1l8.31-27.94z" fill="#f29495"/><path d="m674.32 301.33-6.92 19.12a46.49 46.49 0 0 1 -59.55 27.86 28 28 0 0 1 -16.75-35.82l9.84-27.14 1.66-4.59.61-1.69 1.81-5a23.29 23.29 0 0 1 29.84-13.95l4.73 1.72 19.57 7.09a24.92 24.92 0 0 1 7 3.88 25.3 25.3 0 0 1 9 14.11 25 25 0 0 1 -.84 14.41z" fill="#f5b5a9"/><path d="m668 300.51c-8.63 11.18-31.15 8.27-50.31-6.51a70 70 0 0 1 -14.46-14.93l1.81-5a23.29 23.29 0 0 1 29.84-13.95l4.73 1.72 19.57 7.09a24.92 24.92 0 0 1 7 3.88c5.95 10.46 7.05 20.9 1.82 27.7z" fill="#f29495"/><circle cx="633.19" cy="305.3" fill="#24364f" r="3.22"/><circle cx="611.39" cy="298.82" fill="#24364f" r="3.22"/><path d="m607.75 323.57a9.5 9.5 0 0 0 1.29 7.2c.17.26.34.51.53.75a9.55 9.55 0 0 0 5.43 3.48l.38.08a9.46 9.46 0 0 0 5.88-.59 9.57 9.57 0 0 0 5.29-5.94c.08-.25.14-.51.2-.77a1.85 1.85 0 0 0 -1.41-2.2l-15.34-3.42a1.84 1.84 0 0 0 -2.25 1.41z" fill="#962f4a"/><path d="m615.54 333.55a7.37 7.37 0 0 0 -.17 1.47 9.55 9.55 0 0 0 11.17-6.53 7.93 7.93 0 0 0 -2-.75 7.6 7.6 0 0 0 -9 5.81z" fill="#e1617f"/><path d="m610.3 322.23c-.33 1.85 2.17 3.93 5.64 4.69s6.61-.09 7.09-1.9z" fill="#fff"/><path d="m654.32 293.06h19.61a0 0 0 0 1 0 0v38.87a0 0 0 0 1 0 0h-1.7a17.91 17.91 0 0 1 -17.91-17.93v-21a0 0 0 0 1 0 .06z" fill="#30527d" transform="matrix(.95852179 .28501926 -.28501926 .95852179 116.6 -176.31)"/><circle cx="663.06" cy="323.16" fill="#f5b5a9" r="11.83"/><path d="m666.86 322.89a5.1 5.1 0 0 1 -3.82 4.16 1.47 1.47 0 0 1 -1.74-1.68l1-6.56a1.48 1.48 0 0 1 2.3-1 5.1 5.1 0 0 1 2.26 5.08z" fill="#f29495"/><circle cx="672.65" cy="284.08" fill="#30527d" r="21.34"/><path d="m693.1 290.17a21.28 21.28 0 0 1 -11.76 13.4 21.33 21.33 0 0 0 -20.34-37.37 21.33 21.33 0 0 1 32.08 24z" fill="#24364f"/><g fill="#30527d"><circle cx="654.73" cy="265.98" r="28.62"/><circle cx="618.77" cy="262.68" r="28.62"/><circle cx="654.73" cy="265.98" r="28.62"/><circle cx="618.77" cy="262.68" r="28.62"/></g><g fill="#3a6091"><path d="m683.2 268.93a28.6 28.6 0 0 0 -40.54-22 25.78 25.78 0 0 0 -3.76 2.13 27 27 0 0 0 -4.27-3.45 29.74 29.74 0 0 1 4.14-3.39 28.63 28.63 0 0 1 44.43 26.72z"/><path d="m642.66 246.92a25.78 25.78 0 0 0 -3.76 2.13 27 27 0 0 0 -4.27-3.45 28.13 28.13 0 0 0 -7.58-3.52 28.61 28.61 0 0 0 -35.59 19.27 28.28 28.28 0 0 0 -1 5.21 28.62 28.62 0 0 1 48.35-24.35 27.29 27.29 0 0 1 3.85 4.71z"/><circle cx="657.91" cy="270.86" r="12.34"/></g><circle cx="589.59" cy="598.94" fill="#fff" r="68.02"/><g fill="#f4f5f9"><path d="m311.9 778.42-90-72.06a61.18 61.18 0 0 1 99.86 70.31 6.68 6.68 0 0 1 -9.86 1.75z"/><path d="m289.33 760.4-72.43-58a9.29 9.29 0 0 1 0-14.5 51.56 51.56 0 0 1 72.45 72.49z"/><path d="m332 787.15.09-.09 1.48-1.84a19.92 19.92 0 0 0 -3.06-28l-24.71-19.87a19.9 19.9 0 0 0 -21-2.48 8.4 8.4 0 0 1 -8.85-1.08l-58.64-47.08a6.42 6.42 0 0 0 -8.86.65 6.25 6.25 0 0 0 .84 8.93l114.13 91.64a6.24 6.24 0 0 0 8.58-.78z"/><path d="m311.9 778.42-90-72.06a61.18 61.18 0 0 1 99.86 70.31 6.68 6.68 0 0 1 -9.86 1.75z"/><path d="m332 787.15.09-.09 1.48-1.84a19.92 19.92 0 0 0 -3.06-28l-24.71-19.87a19.9 19.9 0 0 0 -21-2.48 8.4 8.4 0 0 1 -8.85-1.08l-58.64-47.08a6.42 6.42 0 0 0 -8.86.65 6.25 6.25 0 0 0 .84 8.93l114.13 91.64a6.24 6.24 0 0 0 8.58-.78z"/></g><path d="m330.54 757.21-.87-.7a61.25 61.25 0 0 0 -45.24-71.3 61.28 61.28 0 0 1 30.57 59.52 54.8 54.8 0 0 1 -.83 5.56 60.61 60.61 0 0 1 -7.91 20.16 6.6 6.6 0 0 1 -1.85 2l-.15.11 11.43 9.19 7.74 6.2a6.24 6.24 0 0 0 8.62-.77.34.34 0 0 1 .08-.09l1.48-1.84a19.92 19.92 0 0 0 -3.07-28.04z" fill="#dfe3ef"/><path d="m511.54 904.07-4.14-.8-79.86-15.37-7.26-1.39 32.33-168.06 2.07-10.74.37-1.88 1.47-7.67a46.47 46.47 0 1 1 91.26 17.56l-3.26 16.94-.38 2z" fill="#f1f2f7"/><path d="m511.54 904.07-4.14-.8-23.46-4.52 28.51-148.17 3.65-18.94a46.47 46.47 0 0 0 -36.85-54.41 46 46 0 0 0 -12.22-.72 46.47 46.47 0 0 1 80.75 39.21l-3.64 18.95z" fill="#e9ebf4"/><circle cx="589.59" cy="598.94" fill="#fff" r="68.02"/><path d="m611.39 663.37a68 68 0 0 0 -55.16-123.7 68 68 0 1 1 55.16 123.7z" fill="#f2f1f9"/><path d="m544.52 732.66-1.9 2a54.91 54.91 0 0 1 -77.62 1.57 54.34 54.34 0 0 1 -12.36-17.78l2.07-10.74.37-1.88 1.47-7.67a46.47 46.47 0 1 1 91.26 17.56z" fill="#e9ebf4"/><g fill="#fff"><rect height="203.99" rx="54.91" transform="matrix(.72139772 .69252099 -.69252099 .72139772 601.84 -200.4)" width="109.83" x="495.05" y="545.72"/><path d="m462.42 706.64-1.84 9.56-33 171.7-7.26-1.39 34.4-178.8 1.84-9.55a46.44 46.44 0 0 1 30.17-35 46.73 46.73 0 0 1 30.69 6.8l-.55-.11a46.45 46.45 0 0 0 -54.45 36.79z"/><rect height="203.99" rx="54.91" transform="matrix(.72139772 .69252099 -.69252099 .72139772 601.84 -200.4)" width="109.83" x="495.05" y="545.72"/></g><path d="m633.54 634.21a54.83 54.83 0 0 1 -11.36 17.57l-65.18 67.93a54.9 54.9 0 0 1 -92.67-23.91 54.89 54.89 0 0 0 59.55-13.14l65.22-67.92a54.82 54.82 0 0 0 13.45-52.16 54.92 54.92 0 0 1 31 71.63z" fill="#f4f5f9"/><path d="m633.54 634.21a54.83 54.83 0 0 1 -11.36 17.57l-65.18 67.93a54.92 54.92 0 0 1 -77.64 1.58 53.84 53.84 0 0 1 -7.75-9.29 55 55 0 0 0 70.39-7.46l65.22-67.93a54.86 54.86 0 0 0 6.18-68.34 54.91 54.91 0 0 1 20.19 65.94z" fill="#e9ebf4"/><g fill="#abb3c6"><path d="m569 707.21-12 12.5a54.91 54.91 0 1 1 -79.22-76.07l11.92-12.42a54.92 54.92 0 0 0 79.3 76z"/><path d="m590.85 684.55-12 12.49a54.92 54.92 0 0 1 -79.22-76.04l1.58-1.64a54.91 54.91 0 0 0 81.61 73.41l5.56-5.79c.85-.8 1.67-1.6 2.47-2.43z"/><path d="m600.75 674.17-12 12.49a54.91 54.91 0 1 1 -79.22-76.06l11.92-12.43a54.92 54.92 0 0 0 79.29 76z"/></g><path d="m504.89 917.19-112.1-26.92a61.18 61.18 0 0 1 120.29 21.14 6.69 6.69 0 0 1 -8.19 5.78z" fill="#e9ebf4"/><path d="m504.89 917.19-6-1.45a.88.88 0 0 0 0-.16 61.23 61.23 0 0 0 -70.78-67.23 61.19 61.19 0 0 1 85 63.06 6.69 6.69 0 0 1 -8.22 5.78z" fill="#9ba6bc"/><path d="m476.81 910.49-90.23-21.67a9.28 9.28 0 0 1 -6.18-13.11 51.56 51.56 0 0 1 96.41 34.78z" fill="#f1f2f7"/><path d="m451.17 853.07-1.7-.44a51.59 51.59 0 0 0 -58.33 27.37 9.26 9.26 0 0 0 1.4 10.23l-6-1.43a9.3 9.3 0 0 1 -6.19-13.12 51.63 51.63 0 0 1 70.78-22.64z" fill="#fff"/><path d="m526.83 916.52s0-.07 0-.11l.55-2.3a19.92 19.92 0 0 0 -14.69-24.05l-30.83-7.45a19.92 19.92 0 0 0 -20.06 6.7 8.4 8.4 0 0 1 -8.47 2.79l-73.09-17.66a6.43 6.43 0 0 0 -7.75 4.36 6.25 6.25 0 0 0 4.56 7.72l142.27 34.37a6.25 6.25 0 0 0 7.51-4.37z" fill="#abb3c6"/><path d="m389 889.38-11.87-2.86a6.25 6.25 0 0 1 -4.56-7.72 6.41 6.41 0 0 1 7.75-4.35l12 2.89a7 7 0 0 0 -3.27 12z" fill="#c9ced6"/><path d="m519.36 920.89-19.83-4.78a6.25 6.25 0 0 0 5.6-4.53.61.61 0 0 0 .05-.12l.55-2.29a19.93 19.93 0 0 0 -14.69-24l-12.45-3a21.54 21.54 0 0 1 3.32.51l30.82 7.45a19.92 19.92 0 0 1 14.69 24.05l-.55 2.3s0 .07 0 .11a6.24 6.24 0 0 1 -7.51 4.3z" fill="#9ba6bc"/><circle cx="442.87" cy="870.98" fill="#abb3c6" r="13.96"/><rect fill="#f1f2f7" height="3.33" rx="1.66" transform="matrix(.98215619 .18806703 -.18806703 .98215619 171.03 -67.9)" width="18.33" x="434.33" y="866.05"/><rect fill="#f1f2f7" height="3.33" rx="1.66" transform="matrix(.98215619 .18806703 -.18806703 .98215619 172.23 -67.55)" width="18.33" x="433.08" y="872.58"/><circle cx="558.14" cy="642.01" fill="#abb3c6" r="18.7"/><circle cx="558.14" cy="642.01" fill="#fff" r="13.22"/><g fill="#e9ebf4"><rect height="113.57" rx="29.98" transform="matrix(.78455998 .62005293 -.62005293 .78455998 529.8 -282.95)" width="59.97" x="642.11" y="564.17"/><circle cx="645.34" cy="647.05" r="36.24"/><rect height="49.13" rx="13.6" transform="matrix(.78455998 .62005293 -.62005293 .78455998 558.08 -255.79)" width="27.21" x="633.54" y="650.66"/></g><path d="m707.36 576.44a30 30 0 0 1 .78 38.14l-26.59 33.63-6.65 8.42-.09.11a29.48 29.48 0 0 1 -7.63 6.78 29 29 0 0 1 -4.06 2.12 12.62 12.62 0 0 1 -.65 2.12 13.35 13.35 0 0 1 -2 3.37l-.37.47-3.36 4.24-5.5 7-4.37 5.52a13.57 13.57 0 0 1 -17.85 3.12 13.6 13.6 0 0 0 22 .83l9.87-12.49a36.07 36.07 0 0 0 18-19.1 1 1 0 0 0 .08-.11l33.24-42.05a30 30 0 0 0 -4.85-42.12z" fill="#dce0ef"/><rect fill="#e9ebf4" height="49.13" rx="11.11" transform="matrix(-.00715579 .9999744 -.9999744 -.00715579 1256.55 -10.77)" width="22.22" x="622.51" y="593.79"/><g fill="#fff"><path d="m621.43 626.78a29.64 29.64 0 0 0 -1.47 2.58 11.11 11.11 0 0 1 .28-22.21h1.9a11.14 11.14 0 0 0 -6.25 9.91 11.16 11.16 0 0 0 5.54 9.7z"/><path d="m633.35 676.91-3.61 2.84a36.19 36.19 0 0 1 -18-46.19 35.18 35.18 0 0 1 2.88-5.68 34.19 34.19 0 0 1 3.25-4.44 11 11 0 0 0 3.59 3.34 29.64 29.64 0 0 0 -1.47 2.58c-.52 1-1 2-1.41 3.09a36.24 36.24 0 0 0 14.8 44.46z"/><rect height="203.99" rx="54.91" transform="matrix(-.79111679 .61166513 -.61166513 -.79111679 1546.88 429.09)" width="109.83" x="645.26" y="376.66"/></g><rect fill="#abb3c6" height="6.9" rx="3.45" transform="matrix(-.82531066 .56467895 -.56467895 -.82531066 1536.78 462.76)" width="31.96" x="680.84" y="465.61"/><path d="m762.56 559.35c-.73.57-1.47 1.11-2.22 1.63a54.88 54.88 0 0 0 -7.19-54.84l-57.59-74.5a54.92 54.92 0 0 0 -74.82-11.48 54.92 54.92 0 0 1 94.08-12.34l57.6 74.5a54.92 54.92 0 0 1 -9.86 77.03z" fill="#f4f5f9"/><path d="m762.56 559.35c-.68.53-1.37 1-2.08 1.52a54.93 54.93 0 0 0 .87-68.26l-57.6-74.51a54.91 54.91 0 0 0 -75-11.36 53.85 53.85 0 0 1 9-8.77 54.91 54.91 0 0 1 77 9.85l57.6 74.5a54.92 54.92 0 0 1 -9.79 77.03z" fill="#e9ebf4"/><path d="m647.33 410.31a54.91 54.91 0 0 0 -9.86 77l-9.54-12.31a54.92 54.92 0 0 1 86.89-67.18l9.51 12.31a54.89 54.89 0 0 0 -77-9.82z" fill="#abb3c6"/><path d="m640.44 490.88a54.91 54.91 0 0 1 88.87-64.52 54.91 54.91 0 0 0 -85 69.21z" fill="#abb3c6"/><rect fill="#fff" height="187.77" rx="46.47" transform="matrix(.84085013 .54126802 -.54126802 .84085013 415.37 -296.73)" width="92.94" x="665.88" y="464.19"/><path d="m777.08 543.35-51.32 79.75a46.36 46.36 0 0 1 -64.22 13.9 46 46 0 0 1 -7.52-6c.88.43 1.77.82 2.67 1.18a46.49 46.49 0 0 0 56.33-18l51.32-79.75a46.44 46.44 0 0 0 -6.4-58.19 46.44 46.44 0 0 1 19.14 67.12z" fill="#f4f5f9"/><rect fill="#e9ebf4" height="109.27" rx="27.04" transform="matrix(.84085013 .54126802 -.54126802 .84085013 417.55 -293.03)" width="54.08" x="680.11" y="509"/><rect fill="#fff" height="68.2" rx="16.88" transform="matrix(.84085013 .54126802 -.54126802 .84085013 417.55 -293.03)" width="33.76" x="690.27" y="529.54"/><g fill="#abb3c6"><rect height="28.98" rx="1.9" transform="matrix(.84085013 .54126802 -.54126802 .84085013 413.46 -290.85)" width="3.8" x="699.5" y="543.29"/><rect height="35.42" rx="1.9" transform="matrix(.84085013 .54126802 -.54126802 .84085013 414.89 -294.49)" width="3.8" x="706.41" y="540.68"/><path d="m676.69 434.19 25 12.57a4.43 4.43 0 0 1 .49 7.62l-22.61 15.29a4.43 4.43 0 0 1 -6.89-3.29l-2.36-27.86a4.43 4.43 0 0 1 6.37-4.33z"/></g><path d="m679 439 17.88 9a3.17 3.17 0 0 1 .36 5.46l-16.24 10.99a3.16 3.16 0 0 1 -4.93-2.36l-1.7-19.95a3.18 3.18 0 0 1 4.63-3.14z" fill="#fff"/><circle cx="700.21" cy="581.91" fill="#abb3c6" r="6.44"/><path d="m644.93 664.92a17.15 17.15 0 0 1 -5.32 7.08l-6.26 4.91-3.61 2.84-1.84 1.44a17.13 17.13 0 0 1 -21.15-26.94l2.7-2.12 6.55-5.13 2.5-2a17.13 17.13 0 0 1 26.47 19.86z" fill="#e9ebf4"/><path d="m641.67 670.07a16.44 16.44 0 0 1 -2.06 1.93l-6.26 4.91-3.61 2.84-1.84 1.44a17.13 17.13 0 0 1 -21.15-26.94l2.7-2.12 5.75-4.51a17.12 17.12 0 0 0 23.23 25l1.84-1.44z" fill="#fff"/><circle cx="640.13" cy="648.67" fill="#fff" r="17.6"/><path d="m766.65 559.56a46.47 46.47 0 0 0 -78.24-50.16l10.52-16.35a46.47 46.47 0 1 1 78.15 50.3z" fill="#f2f1f9"/><g fill="#e9ebf4"><circle cx="534.96" cy="434.08" r="7.59"/><circle cx="528.86" cy="449.27" r="5.36"/><circle cx="523.6" cy="462.39" r="3.48"/><rect height="6.97" rx="3.48" transform="matrix(.92809642 .37233994 -.37233994 .92809642 205.55 -176.45)" width="29.3" x="544.97" y="440.49"/><rect height="6.97" rx="3.48" transform="matrix(.92809642 .37233994 -.37233994 .92809642 210.77 -173.08)" width="29.3" x="538.87" y="455.68"/><rect height="6.97" rx="3.48" transform="matrix(.92809642 .37233994 -.37233994 .92809642 215.28 -170.18)" width="29.3" x="533.61" y="468.8"/><path d="m865 553.68a61 61 0 0 1 -22.63-15.61c-22.13-24.21-24.61-64.63-27-103.73-1.42-23.24-2.77-45.2-8.1-63-15.95-53.16-71.26-50.72-71.81-50.69-2 .11-3.32-1.95-2.9-4.61s2.4-4.91 4.42-5a86.21 86.21 0 0 1 32 5.56c22.49 8.45 38.14 25.55 45.33 49.5 5.64 18.81 7 41.34 8.48 65.19 2.31 37.58 4.69 76.44 25.15 98.81 23.3 25.49 67.9 26.3 136.33 2.48 2.07-.72 3.79.77 3.84 3.33s-1.58 5.23-3.64 6c-37.71 13.13-67.8 18.85-92 17.5a86.57 86.57 0 0 1 -27.47-5.73z"/></g><path d="m573.11 381.18 2.55 19a3 3 0 0 1 -4.12 3.22l-17.38-6.87a3 3 0 0 1 -.8-5.17l14.83-12.1a3 3 0 0 1 4.92 1.92z" fill="#abb3c6"/><path d="m571.25 384.34 1.83 13.59a2.17 2.17 0 0 1 -3 2.31l-12.46-4.92a2.17 2.17 0 0 1 -.57-3.7l10.67-8.62a2.18 2.18 0 0 1 3.53 1.34z" fill="#fff"/><path d="m699.85 372.92a84.52 84.52 0 0 1 -26.63 14.31l-51.8-12.89-34.58-8.59a84.27 84.27 0 0 1 26.44-135.75 84.26 84.26 0 0 1 86.57 143z" fill="#abb3c6" opacity=".33"/><path d="m695 376.5a84.45 84.45 0 0 1 -21.78 10.73l-51.8-12.89-34.58-8.59a84.27 84.27 0 0 1 19.1-132.11 84.25 84.25 0 0 0 -29.71 103.1 84.83 84.83 0 0 0 16.84 25.13l34.57 8.59 51.8 12.89a84.34 84.34 0 0 0 15.56-6.85z" fill="#f4f5f9"/><path d="m699.85 372.92a84.52 84.52 0 0 1 -26.63 14.31l-51.8-12.89-34.58-8.59a85.2 85.2 0 0 1 -6.73-7.85l.82.2 51.79 12.9a84.28 84.28 0 0 0 24.68-147.6 81.56 81.56 0 0 1 10.23 1.88 84.26 84.26 0 0 1 32.22 147.64z" fill="#f4f5f9"/><path d="m699.85 372.92a84.52 84.52 0 0 1 -26.63 14.31l-14.75-5.51a84.27 84.27 0 0 0 10.91-156 84.25 84.25 0 0 1 30.47 147.17z" fill="#e9ebf4"/><rect fill="#e9ebf4" height="32.26" rx="10.64" transform="matrix(.99479214 .10192446 -.10192446 .99479214 35.69 -69.55)" width="52.07" x="672.04" y="298.16"/><path d="m711.74 331.9-8.17-1.12a10.64 10.64 0 0 0 11.67-9.5l1.12-10.92a10.64 10.64 0 0 0 -7.11-11.15l5.78.6a10.64 10.64 0 0 1 9.5 11.68l-1.12 10.92a10.64 10.64 0 0 1 -11.67 9.49z" fill="#dfe3f2"/><path d="m714 311.06-3.54-1.06-2.52 8.17a3.9 3.9 0 0 1 -4.31 2.71l-24.22-3.65a1.82 1.82 0 0 0 -2.08 1.53 1.84 1.84 0 0 0 1.53 2.08l25.35 3.82a6.36 6.36 0 0 0 7.06-4.5z" fill="#f4f5f9"/><path d="m704.21 324.65-25.35-3.84a1.46 1.46 0 0 1 -.41-.11 1.81 1.81 0 0 1 -1.11-2 1.09 1.09 0 0 1 .07-.3 1.77 1.77 0 0 0 .75.57 1.46 1.46 0 0 0 .41.11l25.34 3.92a6.37 6.37 0 0 0 7.07-4.5l2.25-7.62.72.23-2.68 9.08a6.37 6.37 0 0 1 -7.06 4.46z" fill="#dfe3f2"/><circle cx="712.27" cy="310.29" fill="#f4f5f9" r="5.95"/><circle cx="713.9" cy="311.04" fill="#e9ebf4" r="4.17"/><path d="m719.67 389.77a10.16 10.16 0 0 1 -11.88 6.06l-34.57-8.6-86.38-21.48-34.56-8.6a10.16 10.16 0 0 1 -7.41-12.31 10.59 10.59 0 0 1 .43-1.35 10.17 10.17 0 0 1 11.88-6.06l12.82 3.19 129.84 32.3 12.85 3.19a10.16 10.16 0 0 1 7.4 12.31 9.21 9.21 0 0 1 -.42 1.35z" fill="#f1f2f7"/><path d="m719.67 389.77a10.16 10.16 0 0 1 -11.88 6.06l-25.79-6.42a11.22 11.22 0 0 0 7.24-6.58 10.11 10.11 0 0 0 .48-1.47 11.21 11.21 0 0 0 -4.89-12.18l15 3.74 12.85 3.19a10.16 10.16 0 0 1 7.4 12.31 9.21 9.21 0 0 1 -.41 1.35z" fill="#e9ebf4"/><ellipse cx="648.27" cy="240.17" fill="#f4f5f9" rx="10.88" ry="12.62" transform="matrix(.73075827 -.68263633 .68263633 .73075827 10.59 507.2)"/><ellipse cx="663.15" cy="260.88" fill="#f4f5f9" rx="5.67" ry="4.89" transform="matrix(.2329362 -.97249202 .97249202 .2329362 254.96 845.02)"/><g fill="#fff"><circle cx="321.29" cy="219.3" r="6.72"/><circle cx="859.89" cy="843.36" r="6.72"/><circle cx="113.97" cy="314.29" r="10.08"/><circle cx="793.97" cy="666.62" r="10.08"/><circle cx="181.07" cy="136.64" r="4.33"/><circle cx="627.82" cy="208.33" r="4.33"/><circle cx="128.38" cy="793.63" r="4.33"/><circle cx="293.38" cy="500.12" r="4.33"/><circle cx="580.11" cy="821.05" r="4.33"/></g></svg>