<svg viewBox="0 0 1000 1000" xmlns="http://www.w3.org/2000/svg"><path d="m967.85 786.88a65.85 65.85 0 0 1 -46.56 112.42h-824.47a65.86 65.86 0 1 1 0-131.71h85.86a43.29 43.29 0 0 0 41.38-55.88 38.85 38.85 0 0 0 -1.6-4.34 43.2 43.2 0 0 0 -39.78-26.28h-13.48a99.64 99.64 0 0 1 -67.75-26.45q-1.52-1.39-3-2.85a100 100 0 0 1 70.75-170.74h73.66a44.11 44.11 0 0 0 0-88.21h-134.58a104.57 104.57 0 0 1 0-209.13 29.14 29.14 0 0 0 29.15-29.14v-20.81a49.9 49.9 0 0 1 45.43-49.76c1.49-.13 3-.2 4.51-.2h293a49.74 49.74 0 0 1 33.89 13.26c.49.44 1 .9 1.43 1.37a49.73 49.73 0 0 1 14.59 33.65v1.67a49.94 49.94 0 0 0 7.06 25.6 49.88 49.88 0 0 0 42.89 24.35h146.18a83.1 83.1 0 0 1 83.1 83.11v68.31a54.52 54.52 0 0 0 54.49 54.53h83.06a49.2 49.2 0 0 1 0 98.39 30.87 30.87 0 0 0 -30.88 30.88v98.73a63.44 63.44 0 0 1 -63.44 63.44 43.25 43.25 0 1 0 0 86.5h68.52a65.64 65.64 0 0 1 46.59 19.29z" fill="#f3f4fe"/><g fill="#d2d6fa"><path d="m317.31 434a124.34 124.34 0 0 1 1.69-20.38 77 77 0 1 1 109.18-103 127.27 127.27 0 0 1 13.16-.69 124 124 0 1 1 -124 124z"/><path d="m820.37 310a77.11 77.11 0 0 1 -94.37 75.06c-1.49-.34-3-.73-4.42-1.16a77.05 77.05 0 1 1 87.9-113.38 73 73 0 0 1 3.83 7.27 75.29 75.29 0 0 1 4.6 12.94 76.71 76.71 0 0 1 2.46 19.27z"/><path d="m521.22 255.84a77 77 0 1 1 -42.87-116.14 91.43 91.43 0 1 1 42.87 116.14z"/><path d="m166.24 767.59c.2 2.37.29 4.76.29 7.18a91.43 91.43 0 0 1 -131.19 82.31 65.82 65.82 0 0 1 61.48-89.49z"/><path d="m357.46 627a91.41 91.41 0 0 1 -135 80.34 43.2 43.2 0 0 0 -39.78-26.28h-13.48a99.64 99.64 0 0 1 -67.75-26.45 59 59 0 0 1 73.49-34.55 91.37 91.37 0 0 1 91.11-84.46c2.19 0 4.37.08 6.52.24a91.39 91.39 0 0 1 84.89 91.16z"/></g><path d="m967.85 786.88a65.85 65.85 0 0 1 -46.56 112.42h-824.47a65.86 65.86 0 1 1 0-131.71h85.86a43.29 43.29 0 0 0 41.38-55.88 38.85 38.85 0 0 0 -1.6-4.34 43.33 43.33 0 0 0 -19.94-21.47 80.85 80.85 0 0 1 67-68.89 140.89 140.89 0 0 1 129.65-176.25 76 76 0 0 1 -.93-11.17 73.48 73.48 0 0 1 2.76-19.59 120.84 120.84 0 0 1 82.34-227.2 119.86 119.86 0 0 1 192.66 86.31c.69-.07 1.39-.12 2.09-.16 1.17-.07 2.36-.11 3.55-.11a55.36 55.36 0 0 1 51.28 34.54 151 151 0 0 1 76.58-25.44c1.27-.07 2.55-.12 3.83-.15a75.29 75.29 0 0 1 4.6 12.94 77.19 77.19 0 0 1 -7.1 56.37 54.52 54.52 0 0 0 53.17 42.55h83.06a49.2 49.2 0 0 1 0 98.39 30.87 30.87 0 0 0 -30.88 30.88v98.73a63.44 63.44 0 0 1 -63.44 63.44 43.25 43.25 0 1 0 0 86.5h68.52a65.64 65.64 0 0 1 46.59 19.29z" fill="#eaecfd"/><g fill="#f0f1fc"><path d="m359 336.93a96.39 96.39 0 0 0 64 57 96.54 96.54 0 0 1 75.85-175.51 96.54 96.54 0 0 0 -139.85 118.51z"/><path d="m817.94 290.73a77.21 77.21 0 0 1 2 27.45 95.39 95.39 0 0 0 -10.42.48 98.21 98.21 0 0 0 -87.36 82.09 98.48 98.48 0 0 1 87.36-109.5q4.19-.45 8.42-.52z"/><path d="m918.4 389.65a98.78 98.78 0 0 1 -1.29 15.44 98.34 98.34 0 0 0 -3.11-15.44z"/></g><path d="m957.49 888.46a65.55 65.55 0 0 1 -36.2 10.84h-691.92l250.55-341.21 2.45-3.34 25.85-35.2 9.36-12.74 5.31-7.24 16.69-22.72 48.31-65.8c28.86-39.31 88.78-35.34 112.2 7.43l38.91 71.07 11.39 20.79 20.61 37.56 2.63 4.81 70.76 129.2 46.93 85.68z" fill="#d2d6fa"/><path d="m814.42 899.3h-585l250.5-341.21 2.45-3.34 25.85-35.2 9.36-12.74 5.31-7.24 16.69-22.72a68.6 68.6 0 0 1 16.87 18.21l7.5 11.75 63.15 99 23.09 36.17 10.91 17.02z" fill="#c1c5f0"/><path d="m700.09 418.48c-23.42-42.77-83.34-46.74-112.2-7.43l-108 147a36.62 36.62 0 0 0 48.21-11.81 36.59 36.59 0 0 0 61 0 36.59 36.59 0 0 0 61 0 36.6 36.6 0 0 0 61 0 36.6 36.6 0 0 0 59.9 1.66z" fill="#a2a8dd"/><path d="m768.05 899.3h-671.23a65.75 65.75 0 0 1 -17.69-2.41l101.19-129.3 43.74-55.88 8.29-10.6 9.7-12.39 17.1-21.85 30.56-39 18.94-24.2 89.17-113.95c29.26-37.4 86.71-34.64 112.26 5.39l7.5 11.75 63.15 99 23.09 36.17 10.91 16.97 20.43 32 12.34 19.34z" fill="#eaecfd"/><rect fill="#d2d6fa" height="17.61" rx="8.8" width="74.06" x="869.3" y="899.3"/><path d="m517.58 506.81-7.5-11.75c-25.55-40-83-42.79-112.26-5.39l-138.67 177.2a31.94 31.94 0 0 0 19.85-10.76 32 32 0 0 0 48.38 0 32 32 0 0 0 48.38 0 32 32 0 0 0 48.37 0 32 32 0 0 0 48.38 0 32 32 0 0 0 48.38 0 32 32 0 0 0 48.38 0 32 32 0 0 0 45.46 2.89z" fill="#d2d6fa"/><rect fill="#8c285c" height="36.82" rx="18.41" width="106.15" x="531.5" y="267.11"/><path d="m637.65 285.51a18.4 18.4 0 0 1 -18.4 18.41h-69.34a18.39 18.39 0 0 1 -16-9.39 18.26 18.26 0 0 0 10 3h69.35a18.4 18.4 0 0 0 18.4-18.4 18.18 18.18 0 0 0 -2.36-9 18.39 18.39 0 0 1 8.38 15.43z" fill="#72194c"/><circle cx="545.71" cy="282.59" fill="#72194c" r="21.68"/><rect fill="#ef948c" height="92.79" rx="16.81" transform="matrix(-.97487795 .2227397 -.2227397 -.97487795 1117.51 377.47)" width="33.62" x="520.67" y="205.34"/><ellipse cx="529.04" cy="216.93" fill="#ef948c" rx="17.35" ry="21.43" transform="matrix(.91197697 -.4102414 .4102414 .91197697 -42.43 236.09)"/><circle cx="552.44" cy="210.22" fill="#161762" r="12.22"/><path d="m514.64 195.22h43.61a0 0 0 0 1 0 0v17.65a0 0 0 0 1 0 0h-43.61a8.83 8.83 0 0 1 -8.83-8.83 8.83 8.83 0 0 1 8.83-8.82z" fill="#151d87" transform="matrix(-.95716803 -.28953301 .28953301 -.95716803 982.22 553.37)"/><path d="m557.13 211.64a8.82 8.82 0 0 1 -11 5.89l-41.75-12.62 1.05-3.47 35.71 10.8a8.83 8.83 0 0 0 10.91-11.32 8.85 8.85 0 0 1 5.08 10.72z" fill="#161762"/><path d="m498.78 184.82h39.31a0 0 0 0 1 0 0v26.26a0 0 0 0 1 0 0h-39.31a13.13 13.13 0 0 1 -13.13-13.13 13.13 13.13 0 0 1 13.13-13.13z" fill="#2329ad" transform="matrix(-.95716803 -.28953301 .28953301 -.95716803 944.52 535.6)"/><path d="m537 205.54a13.14 13.14 0 0 1 -16.38 8.77l-37.62-11.38 1.8-6 34.77 10.51a13.13 13.13 0 0 0 16.38-8.77 13.56 13.56 0 0 0 .48-2.31 13.09 13.09 0 0 1 .57 9.18z" fill="#151d87"/><path d="m441.2 166.65h77a0 0 0 0 1 0 0v37.46a0 0 0 0 1 0 0h-77a18.73 18.73 0 0 1 -18.73-18.73 18.73 18.73 0 0 1 18.73-18.73z" fill="#4551dd" transform="matrix(-.95716803 -.28953301 .28953301 -.95716803 866.83 498.97)"/><path d="m516.11 199.23a18.73 18.73 0 0 1 -23.35 12.51l-73.66-22.28 2.48-8.21 68.9 20.83a18.76 18.76 0 0 0 24.14-17.26 1.09 1.09 0 0 0 .08.15 18.66 18.66 0 0 1 1.41 14.26z" fill="#2329ad"/><circle cx="424.52" cy="171.53" fill="#5f71f2" r="18.81"/><path d="m442.52 177a18.79 18.79 0 0 1 -21.15 13.09 17 17 0 0 1 -2.3-.53 18.81 18.81 0 1 1 10.89-36 20.06 20.06 0 0 1 2.21.82 18.81 18.81 0 0 1 10.35 22.62z" fill="#5f71f2"/><ellipse cx="426.77" cy="172.21" fill="#4551dd" rx="18.66" ry="16.45" transform="matrix(.28953301 -.95716803 .95716803 .28953301 138.39 530.86)"/><path d="m442.52 177c-2.48 8.21-10.68 13.31-19.65 13a24.61 24.61 0 0 1 -3.17-.36c-9.49-4.08-14.8-13.95-12-23.13s12.65-14.51 22.8-12.66a21.71 21.71 0 0 1 2.84 1.46c7.66 4.69 11.66 13.45 9.18 21.69z" fill="#2329ad"/><path d="m442.52 177c-2.48 8.21-10.68 13.31-19.65 13-7.67-4.68-11.66-13.45-9.18-21.67s10.68-13.31 19.65-12.95c7.66 4.62 11.66 13.38 9.18 21.62z" fill="#151d87"/><path d="m432.17 154.35a20.06 20.06 0 0 0 -2.21-.82 18.81 18.81 0 1 0 -10.89 36 17 17 0 0 0 2.3.53 18.81 18.81 0 0 0 10.8-35.72zm-10.27 32.65a14.25 14.25 0 0 1 -1.91-.44 15.65 15.65 0 1 1 9.06-29.95 13.8 13.8 0 0 1 1.83.69 15.64 15.64 0 0 1 -9 29.7z" fill="#5f71f2"/><rect fill="#5f71f2" height="3.96" rx="1.98" transform="matrix(.95716803 .28953301 -.28953301 .95716803 70.05 -129.33)" width="43.33" x="450.55" y="170.18"/><g fill="#ef948c"><rect height="21.52" rx="4.82" transform="matrix(-.97836479 -.20688726 .20688726 -.97836479 996.92 498.4)" width="9.64" x="519.7" y="186.3"/><rect height="21.52" rx="4.82" transform="matrix(-.89282178 .45041012 -.45041012 -.89282178 1117.75 160.06)" width="9.64" x="535.01" y="202.24"/><rect height="15.37" rx="4.82" transform="matrix(-.97836479 -.20688726 .20688726 -.97836479 1014.57 498.99)" width="9.64" x="528.56" y="188.75"/><rect height="18.3" rx="4.82" transform="matrix(-.97836479 -.20688726 .20688726 -.97836479 985.03 489.96)" width="9.64" x="513.32" y="184.31"/><circle cx="537.77" cy="220.98" r="10"/></g><circle cx="620.07" cy="285.02" fill="#72194c" r="25.57"/><rect fill="#161762" height="29.46" rx="12.99" transform="matrix(-.14349262 .98965139 -.98965139 -.14349262 885.21 -370.58)" width="39.51" x="583.2" y="183"/><path d="m503.75 500.33h31.35v40.71h-31.35z" fill="#d85e66" transform="matrix(-.11909716 .9928826 -.9928826 -.11909716 1098.3 67.01)"/><path d="m510.24 494.58h19.76v40.71h-19.76z" fill="#ce4653" transform="matrix(-.11909716 .9928826 -.9928826 -.11909716 1093.36 59.89)"/><path d="m541.55 391h66.32a27 27 0 0 1 27 27 27 27 0 0 1 -27 27h-102.61a0 0 0 0 1 0 0v-17.75a36.29 36.29 0 0 1 36.29-36.25z" fill="#e6ac3f" transform="matrix(-.99479214 -.10192446 .10192446 -.99479214 1094.63 891.89)"/><path d="m487.34 427.55h82.46a25.17 25.17 0 0 1 25.2 25.17v3.74a25.17 25.17 0 0 1 -25.17 25.17h-82.49a27 27 0 0 1 -27-27 27 27 0 0 1 27-27z" fill="#e6ac3f" transform="matrix(.11909716 -.9928826 .9928826 .11909716 13.41 924.29)"/><path d="m539.74 536.76-20.27-3.7a22.09 22.09 0 0 0 -41.65 7.78l43.95 4.54 21.93 2.27.51-4.93a5.48 5.48 0 0 0 -4.47-5.96z" fill="#161762"/><path d="m504.32 521.48a22.09 22.09 0 0 0 -22 19.83l-4.55-.47a22.1 22.1 0 0 1 24.26-19.71 21.06 21.06 0 0 1 2.29.35z" fill="#40b2ac"/><path d="m547.48 551.29a3.41 3.41 0 0 1 -3.31 3.06 2.17 2.17 0 0 1 -.44 0l-65.55-6.77-.54-.09a5.13 5.13 0 0 1 -2.95-1.8 5.18 5.18 0 0 1 4-8.46 4.62 4.62 0 0 1 .82.07l2.51.39 7.15 1.13 3.33.53 7.14 1.13 3.36.52 7.14 1.13 3.33.53 7.14 1.12 3.33.53 7.14 1.13 3.33.52 7.15 1.13 3.07.49h.26a3.46 3.46 0 0 1 1.92 1.24 3.4 3.4 0 0 1 .67 2.47z" fill="#0c0f44"/><g fill="#161762"><path d="m482 537.68-1 10.18-3.35-.35 1.07-10.29a4.62 4.62 0 0 1 .82.07z"/><path d="m492.5 539.34-.99 9.61-3.34-.35 1.01-9.79z"/><path d="m502.98 540.99-.94 9.04-3.35-.34.96-9.22z"/><path d="m513.45 542.65-.88 8.47-3.34-.34.89-8.66z"/><path d="m523.92 544.3-.81 7.91-3.35-.35.83-8.09z"/><path d="m534.39 545.95-.75 7.35-3.35-.35.78-7.52z"/><path d="m544.87 547.62-.7 6.77-3.35-.35.72-7 3.07.49z"/></g><ellipse cx="636.08" cy="305.61" fill="#8c285c" rx="50.37" ry="49.12" transform="matrix(.1 -1 1 .1 269.97 908.9)"/><path d="m633.75 355.92q-1.29-.06-2.58-.18c-27-2.64-46.69-27.23-44-54.91s26.79-48 53.79-45.34c.82.07 1.63.17 2.44.3-25.94-1.15-48.58 18.73-51.21 45.52s15.81 50.77 41.56 54.61z" fill="#af437c"/><path d="m609 311.27-8.13 83.05 48.03 4.7 26.37 2.58 4.28-43.23.31-3.09 3.56-36.4.03-.32-69.82-6.84z" fill="#8c285c"/><path d="m491.5 497.79h30.41v39.28h-30.41z" fill="#ef948c" transform="matrix(-.58566524 .81055304 -.81055304 -.58566524 1222.85 409.7)"/><path d="m502.57 492.13h16.44v39.28h-16.44z" fill="#d85e66" transform="matrix(-.58566524 .81055304 -.81055304 -.58566524 1224.75 397.41)"/><path d="m516 533.14-17.75-10.48a22.09 22.09 0 0 0 -41.78-7.09l39.73 19.43 19.79 9.7 2.18-4.45a5.48 5.48 0 0 0 -2.17-7.11z" fill="#2329ad"/><path d="m488.07 506.56a22.1 22.1 0 0 0 -27.46 11l-4.1-2a22.1 22.1 0 0 1 29.57-10.12 19.17 19.17 0 0 1 1.99 1.12z" fill="#3e48cc"/><path d="m518.28 549.44a3.4 3.4 0 0 1 -4.16 1.73 2.41 2.41 0 0 1 -.42-.16l-59.17-29-.48-.27a5.19 5.19 0 0 1 4.54-9.26 5.07 5.07 0 0 1 .75.34l2.22 1.24 6.32 3.53 2.94 1.64 6.31 3.53 2.94 1.64 6.32 3.53 2.94 1.64 6.31 3.53 2.95 1.65 6.31 3.52 2.94 1.64 6.32 3.53 2.71 1.52.23.14a3.41 3.41 0 0 1 1.18 4.34z" fill="#161762"/><g fill="#2329ad"><path d="m461.56 514.06-4.5 9.19-3-1.48 4.55-9.29a5.07 5.07 0 0 1 .75.34z"/><path d="m470.82 519.23-4.25 8.68-3.02-1.49 4.33-8.83z"/><path d="m480.07 524.4-4 8.17-3.02-1.49 4.08-8.32z"/><path d="m489.33 529.57-3.75 7.65-3.02-1.47 3.83-7.82z"/><path d="m498.59 534.75-3.5 7.13-3.02-1.48 3.57-7.3z"/><path d="m507.84 539.91-3.25 6.63-3.02-1.48 3.33-6.79z"/><path d="m517.1 545.1-3 6.1-3-1.48 3.08-6.28 2.71 1.52z"/></g><path d="m586.75 395.22h59a27 27 0 0 1 27 27 27 27 0 0 1 -27 27h-95.29a0 0 0 0 1 0 0v-17.71a36.29 36.29 0 0 1 36.29-36.29z" fill="#f9c847" transform="matrix(-.99479214 -.10192446 .10192446 -.99479214 1177.12 904.61)"/><path d="m504 429.26h94.46a26.38 26.38 0 0 1 26.38 26.38v1.36a26.38 26.38 0 0 1 -26.38 26.38h-94.46a27 27 0 0 1 -27-27 27 27 0 0 1 27-27z" fill="#f9c847" transform="matrix(.58566524 -.81055304 .81055304 .58566524 -141.6 635.62)"/><path d="m654.75 252.64a19.51 19.51 0 0 1 -39 .89l-.11-3.51-.64-21.84 39.43-.58.16 10.76.17 11.66z" fill="#ef948c"/><path d="m654.54 238.36a28.93 28.93 0 0 1 -26 8.12l-7.09-1.34a17.48 17.48 0 0 1 -6.25-2.51l-.2-14.45 39.43-.58z" fill="#e87a74"/><rect fill="#8c285c" height="23.76" rx="11.88" transform="matrix(.99439345 -.10574342 .10574342 .99439345 -23.98 69.07)" width="49.47" x="614.63" y="248.81"/><circle cx="624.7" cy="207.88" fill="#ef948c" r="35.69"/><path d="m589.13 205a35.72 35.72 0 0 0 21.87 35.83 42 42 0 0 1 15.87-68.57 35.69 35.69 0 0 0 -37.74 32.74z" fill="#e87a74"/><circle cx="596.82" cy="202.17" fill="#161762" r="2.71"/><circle cx="620.6" cy="204.88" fill="#161762" r="2.71"/><path d="m600.94 221.93a8.25 8.25 0 0 0 2 6 7.4 7.4 0 0 0 .55.57 8.18 8.18 0 0 0 5.11 2.23h.34a8.16 8.16 0 0 0 5-1.26 8.26 8.26 0 0 0 3.76-5.76c0-.22.06-.45.08-.68a1.59 1.59 0 0 0 -1.49-1.7l-13.63-.92a1.6 1.6 0 0 0 -1.72 1.52z" fill="#962f4a"/><path d="m608.89 229.48a6 6 0 0 0 0 1.27 8.26 8.26 0 0 0 8.72-7 6.34 6.34 0 0 0 -1.81-.38 6.57 6.57 0 0 0 -6.91 6.11z" fill="#e1617f"/><path d="m603 220.46c0 1.63 2.36 3.09 5.43 3.29s5.65-.92 5.82-2.53z" fill="#fff"/><path d="m603.52 228.5a8.27 8.27 0 0 0 5.12 2.24h.33a8.23 8.23 0 0 0 5-1.26 5.77 5.77 0 0 0 -5.1-3.27 5.9 5.9 0 0 0 -5.35 2.29z" fill="#fff"/><circle cx="660.57" cy="290.63" fill="#72194c" r="25.57"/><rect fill="#8c285c" height="112.7" rx="19.17" transform="matrix(-.92593652 .37767919 -.37767919 -.92593652 1419.04 370.34)" width="38.33" x="654.04" y="267.96"/><path d="m642.73 280a19.14 19.14 0 0 0 -1.31 17.1l28.09 68.9a19.16 19.16 0 0 0 19 11.89 19.06 19.06 0 0 1 -9.87-10.23l-28.14-68.87a19.18 19.18 0 0 1 10.51-25 19.39 19.39 0 0 1 6-1.38 19.15 19.15 0 0 0 -24.31 7.6z" fill="#72194c"/><circle cx="688.35" cy="359.31" fill="#72194c" r="21.68"/><g fill="#ef948c"><rect height="92.79" rx="16.81" transform="matrix(.99464886 .10331335 -.10331335 .99464886 44.11 -68.84)" width="33.62" x="669.4" y="344.78"/><ellipse cx="682.98" cy="426.84" rx="17.35" ry="21.43" transform="matrix(.99552905 -.09445582 .09445582 .99552905 -37.24 66.38)"/><rect height="21.52" rx="4.82" transform="matrix(1 -.07 .07 1 -28.02 47.57)" width="9.64" x="686.56" y="428.42"/><rect height="15.37" rx="4.82" transform="matrix(1 -.07 .07 1 -28.43 47.01)" width="9.64" x="677.94" y="437.34"/><rect height="27.24" rx="4.82" transform="matrix(.99773152 -.06731876 .06731876 .99773152 -27.92 46.31)" width="9.64" x="667.82" y="423.45"/><rect height="27.24" rx="4.82" transform="matrix(.8856369 .46437839 -.46437839 .8856369 273.98 -261.5)" width="9.64" x="663" y="411.78"/></g><rect fill="#f3a6a0" height="35.93" rx="6.03" transform="matrix(.99464886 .10331335 -.10331335 .99464886 43.83 -69.5)" width="12.06" x="686.39" y="370.19"/><path d="m645.8 180.61h5.4a14.25 14.25 0 0 1 14.25 14.25v20.07a5.5 5.5 0 0 1 -5.5 5.5 14.15 14.15 0 0 1 -14.15-14.15v-25.67a0 0 0 0 1 0 0z" fill="#161762"/><circle cx="657.69" cy="211.21" fill="#ef948c" r="11.9"/><path d="m663 210.3a4.79 4.79 0 0 1 -2.64 4.58 1.37 1.37 0 0 1 -1.93-1.18l-.39-6.2a1.37 1.37 0 0 1 1.89-1.36 4.75 4.75 0 0 1 3.07 4.16z" fill="#e87a74"/><path d="m581.82 154.48h42.69a36.51 36.51 0 0 1 36.49 36.52 2.71 2.71 0 0 1 -2.71 2.71h-42.67a36.51 36.51 0 0 1 -36.51-36.51 2.71 2.71 0 0 1 2.71-2.71z" fill="#161762" transform="matrix(.99788169 .06505481 -.06505481 .99788169 12.63 -39.94)"/><path d="m604.77 165.94h24.63a21.06 21.06 0 0 1 21.05 21.06 1.56 1.56 0 0 1 -1.56 1.56h-24.62a21.06 21.06 0 0 1 -21.06-21.06 1.56 1.56 0 0 1 1.56-1.56z" fill="#151d87" transform="matrix(.99788169 .06505481 -.06505481 .99788169 12.85 -40.37)"/></svg>