<svg viewBox="0 0 1000 1000" xmlns="http://www.w3.org/2000/svg"><path d="m945.56 584a137.78 137.78 0 0 1 -32.56 142.86q-4.18 4.18-8.71 8a137.3 137.3 0 0 1 -84.29 32.24c-1.42 0-2.85.06-4.27.06h-90.37a27.33 27.33 0 0 0 -27.36 27.32v101.91h-456.72v-101.91a27.32 27.32 0 0 0 -27.28-27.32h-53.73a132.33 132.33 0 0 1 -132.4-132.4v-10.41a137.16 137.16 0 0 1 5.72-40.35 113.22 113.22 0 0 1 13.12-28.38c21.42-33.26 56.75-49.39 82.32-57a43.91 43.91 0 0 0 31.24-42.1v-43a63 63 0 0 1 60.35-63c.89 0 1.77-.06 2.67-.06a48.52 48.52 0 0 0 48.58-48.59 48.58 48.58 0 0 0 -48.58-48.59h-68a83.61 83.61 0 1 1 0-167.21h566a97.93 97.93 0 0 1 97.92 97.92 69.19 69.19 0 0 0 69.13 69.29 83.61 83.61 0 1 1 .17 167.22h-178.86a35.14 35.14 0 0 0 -5.84.48 35.75 35.75 0 0 0 5.84 71h106.05a137.72 137.72 0 0 1 129.86 92z" fill="#f3f4fe"/><rect fill="#bcbff6" height="695.57" rx="28.7" width="336.93" x="491.29" y="199.64"/><rect fill="#c7cfff" height="695.57" rx="28.7" width="336.93" x="467.39" y="199.64"/><rect fill="#f3f4fe" height="572.69" rx="10.31" width="287.04" x="492.34" y="252.28"/><path d="m535.48 199.64h185a0 0 0 0 1 0 0 27.74 27.74 0 0 1 -27.74 27.74h-129.52a27.74 27.74 0 0 1 -27.74-27.74 0 0 0 0 1 0 0z" fill="#bcbff6"/><path d="m556.52 251.45h147.38a0 0 0 0 1 0 0v3a24.76 24.76 0 0 1 -24.76 24.76h-97.86a24.76 24.76 0 0 1 -24.76-24.76v-3a0 0 0 0 1 0 0z" fill="#c7cfff"/><circle cx="638.04" cy="859.69" fill="#97a1ef" r="24.99"/><circle cx="633.67" cy="859.69" fill="#afb5f2" r="24.99"/><g fill="#c7cfff"><rect height="16.76" rx="1.92" width="9.02" x="745.57" y="264.15"/><rect height="4.7" rx=".7" width="4.29" x="747.93" y="262.97"/><path d="m724.15 280.03h14.08v-11.94z"/><circle cx="631.61" cy="752.73" r="9.58"/></g><circle cx="600.06" cy="752.73" fill="#afb5f2" r="9.58"/><circle cx="657.31" cy="752.73" fill="#c7cfff" r="9.58"/><circle cx="546.63" cy="395.29" fill="#c7cfff" r="32.12"/><circle cx="546.63" cy="395.29" fill="#f3f4fe" r="24.67"/><g fill="#c7cfff"><rect height="10.27" rx="5.14" width="116.8" x="594.27" y="378.42"/><rect height="10.27" rx="5.14" width="81.04" x="594.27" y="397.53"/><rect height="7.44" rx="3.72" width="41.83" x="504.8" y="268.8"/><rect height="216.27" rx="20.41" width="225.97" x="521.96" y="469.03"/></g><g fill="#afb5f2"><rect height="19.68" rx="9.84" width="132.32" x="564.05" y="633.23"/><rect height="13.2" rx="6.6" width="182.59" x="538.91" y="613.23"/><rect height="13.2" rx="6.6" width="182.59" x="538.91" y="590.32"/></g><circle cx="630.21" cy="534.38" fill="#f3f4fe" r="42.94"/><rect fill="#5948f6" height="51.21" rx="5.43" width="21.32" x="357.31" y="665.83"/><path d="m378.63 671.26v40.35a5.42 5.42 0 0 1 -5.42 5.43h-3.12a5.43 5.43 0 0 0 5.43-5.43v-40.35a5.43 5.43 0 0 0 -5.43-5.43h3.12a5.42 5.42 0 0 1 5.42 5.43z" fill="#5d55ff"/><rect fill="#f9a0b4" height="31.03" rx="6.88" transform="matrix(.92441296 .38139308 -.38139308 .92441296 171.92 -144.12)" width="13.76" x="442.64" y="346.12"/><rect fill="#ffe88a" height="102.85" rx="16.02" width="195.66" x="284.96" y="252.35"/><path d="m480.62 268.37v70.82a16 16 0 0 1 -16 16h-9.31a15.62 15.62 0 0 0 .8-5v-29.79a57 57 0 0 0 -57-57h-113.35a16 16 0 0 1 15.23-11h163.61a16 16 0 0 1 16.02 15.97z" fill="#ffdc75"/><g fill="#ffc24a"><circle cx="452.14" cy="278.44" r="15.13"/><rect height="18.4" rx="9.2" width="121.94" x="297.29" y="273.95"/><rect height="13.27" rx="6.64" width="87.42" x="297.29" y="312.16"/><rect height="6.12" rx="3.06" width="48.27" x="297.29" y="299.59"/><rect height="6.12" rx="3.06" width="108.09" x="297.29" y="331.88"/><rect height="6.12" rx="3.06" width="83.63" x="350.96" y="299.59"/></g><path d="m249.67 896.09 34.78.43a3.48 3.48 0 0 0 3.45-4.19 19.33 19.33 0 0 0 -38.23 3.76z" fill="#4160b2"/><path d="m264.27 877.59h.66a19.34 19.34 0 0 1 18.67 15.32 3.49 3.49 0 0 1 -1.45 3.59h2.3a3.49 3.49 0 0 0 3.45-4.2 19.34 19.34 0 0 0 -23.63-14.74z" fill="#4e75c2"/><path d="m336.61 896.09 34.78.43a3.47 3.47 0 0 0 3.45-4.19 19.33 19.33 0 0 0 -38.23 3.76z" fill="#4160b2"/><path d="m351.21 877.59h.66a19.33 19.33 0 0 1 18.67 15.32 3.47 3.47 0 0 1 -1.45 3.59h2.3a3.49 3.49 0 0 0 3.45-4.2 19.34 19.34 0 0 0 -23.63-14.74z" fill="#4e75c2"/><circle cx="298.21" cy="382.08" fill="#ffb2bf" r="10.99"/><g fill="#f9a0b4"><rect height="28.9" rx="6.88" transform="matrix(-.44072268 -.89764331 .89764331 -.44072268 104.17 791.37)" width="13.76" x="291.74" y="348.79"/><rect height="35.93" rx="6.88" transform="matrix(-.91712966 -.39858901 .39858901 -.91712966 447 781.42)" width="13.76" x="297.87" y="326.27"/><path d="m240.17 424.53a20.06 20.06 0 0 1 -23.57-24.53l.21-.75c.07-.25.15-.49.23-.73s.06-.19.1-.29.11-.31.17-.48c.15-.39.3-.78.48-1.15s.25-.53.38-.8a20.79 20.79 0 0 1 1.4-2.35c.15-.21.29-.42.45-.61a7.31 7.31 0 0 1 .48-.62 17 17 0 0 1 1.13-1.28l41.76-43.28 4.66-4.83a23.17 23.17 0 0 1 1.71-1.59 20.05 20.05 0 0 1 27.15 29.43l-46.41 48.16a19.88 19.88 0 0 1 -10.33 5.7z"/><ellipse cx="284.99" cy="353.41" rx="26.91" ry="21.22" transform="matrix(.56266065 -.82668796 .82668796 .56266065 -167.52 390.17)"/></g><path d="m300.14 331.17c-9.69-6.6-24.32-2-32.68 10.3a33 33 0 0 0 -2.76 4.87l-1.31 1.35-41.76 43.31c-.39.41-.77.85-1.13 1.28a5.7 5.7 0 0 0 -.48.62c-.16.2-.3.4-.45.61a18.71 18.71 0 0 0 -1.39 2.36c-.14.25-.27.52-.39.79s-.33.76-.47 1.15c-.07.17-.13.32-.18.48a1.66 1.66 0 0 0 -.1.29c-.08.24-.16.48-.23.72s-.14.52-.21.76a20.07 20.07 0 0 0 10.27 22.69 20.06 20.06 0 0 1 -5.48-19.22l.21-.76c.07-.25.15-.48.24-.73a1.52 1.52 0 0 1 .09-.28 4.84 4.84 0 0 1 .18-.49c.14-.38.3-.77.48-1.15s.24-.52.38-.79a19.52 19.52 0 0 1 1.4-2.36c.14-.21.28-.41.44-.61s.31-.42.48-.62c.36-.43.74-.87 1.14-1.28l35.43-36.72 6.32-6.55 1.3-1.35a33.86 33.86 0 0 1 10.52-12.94c7.24-5.33 16-6.85 22.83-3.51a17.23 17.23 0 0 0 -2.69-2.22z" fill="#f490aa"/><circle cx="236.55" cy="406.61" fill="#62decb" r="23.46"/><path d="m218.54 406.87a20.07 20.07 0 0 1 31.87-14.74l16.42 12 1.43 1.06 36.06 26.43a20 20 0 0 1 4.31 28 20.07 20.07 0 0 1 -28 4.32l-4.78-3.5-28.23-20.7-2.19-1.61-18.72-13.72a20 20 0 0 1 -8.17-17.54z" fill="#67e9d7"/><path d="m306.8 461.86a20.07 20.07 0 0 1 -26.19 2.14l-4.78-3.5-28.23-20.7-2.19-1.61-18.71-13.71a20 20 0 0 1 3.78-34.48 18.66 18.66 0 0 0 -1.85 2.18 19.78 19.78 0 0 0 -3.83 10.4 20.06 20.06 0 0 0 8.2 17.58l18.72 13.71 2.18 1.61 28.23 20.7 4.78 3.49a20 20 0 0 0 18.43 2.77c.46-.17.96-.36 1.46-.58z" fill="#62decb"/><circle cx="303.08" cy="455.58" fill="#62decb" r="28.04"/><path d="m307.47 393.03h28.26v45.56h-28.26z" fill="#ffb2bf"/><path d="m307.47 393.03h28.26v30.7h-28.26z" fill="#f9a0b4"/><path d="m276.46 887.04 3.18-12.16h-42.93l-3.17 12.16z" fill="#f9a0b4"/><path d="m340.51 571.32-49.32 269.23-5.33 26.7-1.52 7.63h-52.43l1.52-7.63 3.96-19.81 50.81-276.57z" fill="#3432b5"/><path d="m288.09 570.56h80a0 0 0 0 1 0 0v3.73a40 40 0 0 1 -40 40 40 40 0 0 1 -40-40v-3.73a0 0 0 0 1 0 0z" fill="#5948f6"/><path d="m311.75 571.32h56.22v303.56h-56.22z" fill="#5948f6"/><path d="m361.73 571.32h6.24v303.56h-6.24z" fill="#5d55ff"/><path d="m318.4 874.88h42.93v12.16h-42.93z" fill="#ffb2bf"/><path d="m318.4 874.88h42.93v5.52h-42.93z" fill="#f9a0b4"/><path d="m288.09 570.56h80.03v3.86h-80.03z" fill="#3d33d5"/><path d="m293.31 352.39.21 2.43.21 2.34.32 3.63.2 2.29.13 1.49.11 1.21 1.85 20.9v.19l.17 1.92a25.85 25.85 0 0 0 .8 4.53c.05.2.1.4.16.59 3.24 11.12 13.51 19.23 25.67 20.21a31 31 0 0 0 5 0l10-.8c12.62-1 22.1-11.16 21.78-23 0-.43 0-.88-.08-1.32l-2.56-28.91-.09-1-.11-1.24-.11-1.31a19.23 19.23 0 0 0 -1.07-4.87 21.47 21.47 0 0 0 -18.43-13.87 21.24 21.24 0 0 0 -3.91 0l-29.29 2.33a10.83 10.83 0 0 0 -1.29.18 11.51 11.51 0 0 0 -9.67 12.08z" fill="#ffb2bf"/><path d="m356.59 402.42a21.78 21.78 0 0 0 1-7.19c0-.45 0-.89-.08-1.33l-2.51-28.9-.09-1-.11-1.24-.11-1.31a19.94 19.94 0 0 0 -1.06-4.86 21.5 21.5 0 0 0 -18.44-13.88 22.18 22.18 0 0 0 -3.91 0l-29.28 2.29a9.1 9.1 0 0 0 -1.29.18 12.06 12.06 0 0 0 -7.23 4.24 11.72 11.72 0 0 1 9.53-9.14q.63-.12 1.29-.18l29.29-2.32a21.26 21.26 0 0 1 3.91 0 21.51 21.51 0 0 1 18.44 13.87 19.66 19.66 0 0 1 1.06 4.87l.11 1.3.11 1.24.09 1 2.54 28.94c0 .44.07.88.08 1.32a21.51 21.51 0 0 1 -3.34 12.1z" fill="#fdc3cd"/><path d="m290.36 355.17.2 2.55.21 2.48.3 3.83.2 2.41.12 1.57.1 1.27 1.78 22.05v.21l.17 2a30 30 0 0 0 .77 4.78c0 .2.09.41.15.61 3.11 11.74 12.95 20.29 24.61 21.33a26.52 26.52 0 0 0 4.8 0l9.57-.84c12.09-1 21.18-11.77 20.87-24.27 0-.46 0-.93-.07-1.4l-2.44-30.45-.09-1.09-.1-1.31-.12-1.38a21.68 21.68 0 0 0 -1-5.14 21 21 0 0 0 -17.68-14.63 19.44 19.44 0 0 0 -3.74 0l-28.08 2.46a8.64 8.64 0 0 0 -1.24.19 11.93 11.93 0 0 0 -9.29 12.77z" fill="#161762"/><rect fill="#161762" height="32.27" rx="15.1" transform="matrix(-.98942477 .14504699 -.14504699 -.98942477 689.61 645.5)" width="74.76" x="283.88" y="331.77"/><path d="m288.09 558.86h80.03v11.7h-80.03z" fill="#1818aa"/><path d="m307.84 427.84h20.3a40 40 0 0 1 40 40v91a0 0 0 0 1 0 0h-80a0 0 0 0 1 0 0v-111.26a19.74 19.74 0 0 1 19.7-19.74z" fill="#67e9d7"/><path d="m349.31 433.87h-1.35-20.62a19.74 19.74 0 0 0 -19.64 19.84v105.15h-19.61v-111.17a19.75 19.75 0 0 1 19.64-19.85h20.63a39.25 39.25 0 0 1 20.95 6.03z" fill="#62decb"/><path d="m368.12 468.05v90.81h-7.12v-90.81a40.19 40.19 0 0 0 -39.62-40.2h6.52a40.2 40.2 0 0 1 40.22 40.2z" fill="#8af9e6"/><g fill="#5948f6"><path d="m342.45 558.86h4.29v11.71h-4.29z" transform="matrix(-1 0 0 -1 689.19 1129.42)"/><path d="m324.27 558.86h4.29v11.71h-4.29z" transform="matrix(-1 0 0 -1 652.83 1129.42)"/><path d="m306.09 558.86h4.29v11.71h-4.29z" transform="matrix(-1 0 0 -1 616.47 1129.42)"/></g><path d="m349.91 349.13a11.69 11.69 0 0 1 11.69 11.69v11.53a11.39 11.39 0 0 1 -11.39 11.39h-16.81a0 0 0 0 1 0 0v-18.1a16.51 16.51 0 0 1 16.51-16.51z" fill="#161762" transform="matrix(-.98942477 .14504699 -.14504699 -.98942477 744.49 678.56)"/><path d="m359.29 366.34a16.53 16.53 0 0 1 -7.64 16.44 16.51 16.51 0 0 0 9.91-17.61l-2.63-17.91-16.62 2.44a11.37 11.37 0 0 0 -4.66 1.79 11 11 0 0 1 2.38-.62l16.63-2.44z" fill="#292fa8"/><rect fill="#161762" height="32.27" rx="16.14" transform="matrix(-.99 .15 -.15 -.99 709.45 630.01)" width="63.13" x="300.18" y="324.75"/><path d="m358.74 336.92a16.14 16.14 0 0 1 -13.45 18.28l4.07-.6a16.14 16.14 0 0 0 -2.36-32.1 17.11 17.11 0 0 0 -2.35.17l-4.2.62a16.54 16.54 0 0 1 2.31-.17 16.15 16.15 0 0 1 15.98 13.8z" fill="#292fa8"/><path d="m320.74 896.35h39.72a5.38 5.38 0 0 0 5.38-5.38 5.38 5.38 0 0 0 -4.86-5.35l-39.53-3.87a7.32 7.32 0 0 0 -8 7.28 7.32 7.32 0 0 0 7.29 7.32z" fill="#3432b5"/><path d="m233.8 896.35h39.72a5.37 5.37 0 0 0 5.37-5.38 5.38 5.38 0 0 0 -4.85-5.35l-39.53-3.87a7.32 7.32 0 0 0 -8 7.28 7.32 7.32 0 0 0 7.29 7.32z" fill="#3432b5"/><path d="m311.52 873.57h56.45v-34.87l-56.45 8.38z" fill="#1818aa"/><path d="m376.55 847.21-6.34 27.67h-60.69l-4.25-18.56 20.58-2.63z" fill="#3432b5"/><path d="m291.19 840.55-5.33 26.7h-52.43l3.96-19.81z" fill="#0000a3"/><path d="m297.77 847.21-6.35 27.67h-60.68l-4.26-18.56z" fill="#1818aa"/><path d="m325.85 853.69v21.19h-16.33l-4.25-18.56z" fill="#5948f6"/><path d="m247.06 853.69v21.19h-16.33l-4.25-18.56z" fill="#3432b5"/><rect fill="#67e9d7" height="8.8" rx="4.4" width="36.69" x="303.19" y="422.04"/><circle cx="343.66" cy="447.43" fill="#62decb" r="22.47"/><path d="m426.25 418a20.07 20.07 0 0 1 -9.25 33.88l-19.79 4.8-1.73.42-43.48 10.55a20 20 0 0 1 -24.22-14.75 20.06 20.06 0 0 1 14.75-24.21l5.75-1.41 34-8.26 2.64-.64 22.55-5.48a20 20 0 0 1 18.78 5.1z" fill="#67e9d7"/><path d="m428.92 421.21a19.84 19.84 0 0 1 2.83 6.45 20.06 20.06 0 0 1 -14.75 24.22l-19.8 4.81-1.73.42-43.47 10.55a20.05 20.05 0 0 1 -24.22-14.76c-.16-.67-.29-1.34-.38-2a20 20 0 0 0 21.38 8.3l43.45-10.55 1.73-.42 19.79-4.8a20.07 20.07 0 0 0 15.17-22.22z" fill="#62decb"/><circle cx="411.82" cy="431.67" fill="#62decb" r="23.46"/><g fill="#ffb2bf"><rect height="31.99" rx="6.88" transform="matrix(.55571534 .83137263 -.83137263 .55571534 501.69 -230.92)" width="13.76" x="460.02" y="337.95"/><path d="m394 427.42a20.06 20.06 0 0 0 27.11 20.5l.73-.3.69-.31a2.24 2.24 0 0 0 .27-.13l.46-.23c.37-.2.74-.4 1.09-.61l.75-.48a20.22 20.22 0 0 0 2.17-1.67c.19-.16.37-.33.55-.51s.38-.36.56-.55c.39-.4.77-.83 1.13-1.28l38-46.59 4.25-5.2a21.93 21.93 0 0 0 1.37-1.88 20.08 20.08 0 0 0 -4.13-26.33 20.38 20.38 0 0 0 -5.25-3.1 20.08 20.08 0 0 0 -23 5.95l-42.28 51.79a19.93 19.93 0 0 0 -4.47 10.93z"/><ellipse cx="464.83" cy="372.58" rx="28.04" ry="22.98" transform="matrix(.91140328 -.41151436 .41151436 .91140328 -112.13 224.27)"/></g><path d="m480.21 345.06a6.89 6.89 0 0 0 -9.55-1.9l-9.79 6.54a34.24 34.24 0 0 0 -5.49 1.93 31.59 31.59 0 0 0 -14.72 13.21l-42.16 51.65a20 20 0 0 0 2.85 28.21 16.46 16.46 0 0 0 1.66 1.22 20.05 20.05 0 0 1 -1-26.5l35.6-43.62 6.56-8a30.33 30.33 0 0 1 8.34-9.44c.37-.28.75-.55 1.13-.81a34 34 0 0 1 10.75-4.89l5.89-3.94 3.88-2.6a6.89 6.89 0 0 1 6.22-.73 1.52 1.52 0 0 0 -.17-.33z" fill="#fdc3cd"/><ellipse cx="466.59" cy="373.73" fill="#fdc3cd" rx="10.61" ry="8.36" transform="matrix(.91140328 -.41151436 .41151436 .91140328 -112.45 225.1)"/><path d="m419 446.22.73-.29c.24-.1.46-.2.69-.32a2.24 2.24 0 0 0 .27-.13c.16-.07.31-.15.46-.23.37-.19.74-.39 1.09-.61l.75-.47a20.22 20.22 0 0 0 2.17-1.67l.55-.52a7.27 7.27 0 0 0 .56-.55c.39-.4.77-.83 1.13-1.27l36.49-44.7 1.46-1.79a30.94 30.94 0 0 0 4-.56c11.81-2.39 20.06-14.3 19.92-24.31-.07-5.4-4.27-13.23-8.55-16.92 8.34 4 11.54 11 11.62 17.26.16 11.12-11 25.15-24.83 26.23l-37.95 46.49c-.36.44-.74.87-1.13 1.27-.18.19-.37.38-.56.55s-.36.35-.55.51a20.43 20.43 0 0 1 -2.18 1.68l-.74.47c-.35.22-.72.42-1.09.61l-.46.23-.27.13a7.41 7.41 0 0 1 -.7.31l-.72.3a20.05 20.05 0 0 1 -19.82-3.22 7.2 7.2 0 0 1 -.6-.52 20.07 20.07 0 0 0 18.26 2.04z" fill="#f9a0b4"/></svg>