<svg viewBox="0 0 1000 1000" xmlns="http://www.w3.org/2000/svg"><path d="m874.23 828.22a2.33 2.33 0 0 0 .51-.11 2.58 2.58 0 1 0 -1.6-4.91 3.48 3.48 0 0 0 -.48.21 2.6 2.6 0 0 1 2.74 1.78 2.57 2.57 0 0 1 -1.17 3.03z" fill="#375bbb"/><path d="m920.34 410.22h-83.06a54.51 54.51 0 0 1 -54.51-54.52v-68.31a83.11 83.11 0 0 0 -83.11-83.11h-146.12a50 50 0 0 1 -50-49.95 50 50 0 0 0 -49.95-50h-239.46a50 50 0 0 0 -50 50v20.81a29.14 29.14 0 0 1 -29.13 29.14 104.56 104.56 0 0 0 -104.53 104.57 104.56 104.56 0 0 0 104.53 104.56h203.1a44.11 44.11 0 0 1 44.11 44.1 44.11 44.11 0 0 1 -44.11 44.11h-142.1a100 100 0 0 0 -100 100 100 100 0 0 0 100 100h13.48a43.25 43.25 0 0 1 43.25 43.25 43.25 43.25 0 0 1 -43.25 43.25h-85.91a65.86 65.86 0 0 0 -65.86 65.88 65.86 65.86 0 0 0 65.86 65.85h771a65.85 65.85 0 0 0 65.82-65.85 65.86 65.86 0 0 0 -65.85-65.86h-68.54a43.25 43.25 0 0 1 -43.25-43.25 43.25 43.25 0 0 1 43.25-43.23 63.44 63.44 0 0 0 63.44-63.44v-98.73a30.88 30.88 0 0 1 30.88-30.88 49.19 49.19 0 0 0 49.19-49.2 49.19 49.19 0 0 0 -49.17-49.19z" fill="#f3f4fe"/><g fill="#e8e9fd"><circle cx="568.38" cy="656.43" r="59.58"/><circle cx="755.02" cy="599.76" r="59.58"/><circle cx="673.61" cy="633.6" r="59.58"/><circle cx="576.38" cy="708.2" r="50.4"/></g><path d="m781.32 546.58a93.27 93.27 0 0 0 -95.72-127.39c-2.28.22-4.52.53-6.74.91a93.27 93.27 0 0 0 -136.54 117.47 59.53 59.53 0 0 0 6.8 80.67 59.58 59.58 0 0 0 -4 64.57 46 46 0 1 0 81.88 24.19c-.06-.57-.13-1.13-.21-1.7a59.81 59.81 0 0 0 21.45-21.09 59.59 59.59 0 0 0 72.26-38.25 59.57 59.57 0 0 0 60.86-99.34z" fill="#fafaff"/><path d="m582.38 545a61 61 0 0 1 -8.23-5.23c-27.07-20.48-31.89-59.73-10.75-87.68s60.22-34 87.3-13.51a61.14 61.14 0 0 1 7.27 6.5c-26.29-13.87-60-6.49-79.08 18.73s-17.01 59.66 3.49 81.19z" fill="#ebefff"/><path d="m823 300.59a469.46 469.46 0 0 1 -19 47.09c-.43.9-.84 1.78-1.26 2.65-16.48 34.75-35.67 63.25-54.66 82.12a130.83 130.83 0 0 1 -13.91 12.11 54.8 54.8 0 0 0 -68.48-23.42c-10.61-38-4.91-101.24 18-168.18 20.88-61.06 51.2-111 80.38-137.09a113.21 113.21 0 0 1 11.16-8.87 54.8 54.8 0 0 0 64.77 22.15 115.32 115.32 0 0 1 3.4 13.84c7.04 38.52.45 96.53-20.4 157.6z" fill="#c7cfff"/><path d="m823 300.59a469.46 469.46 0 0 1 -19 47.09c-.43.9-.84 1.78-1.26 2.65-16.48 34.75-35.67 63.25-54.66 82.12a130.83 130.83 0 0 1 -13.91 12.11 54.8 54.8 0 0 0 -68.48-23.42c-10.61-38-4.91-101.24 18-168.18 20.88-61.06 51.2-111 80.38-137.09a113.21 113.21 0 0 1 11.16-8.87 54.8 54.8 0 0 0 64.77 22.15 115.32 115.32 0 0 1 3.4 13.84c7.04 38.52.45 96.53-20.4 157.6z" fill="#c7cfff"/><path d="m826.59 62.53s-58.77 50-62.5 53.34l79.3 27.13c-.92-4.95-16.8-80.47-16.8-80.47z" fill="#303d72"/><path d="m797.81 127c-1.2-.58-2.36-1.16-3.5-1.81a54.3 54.3 0 0 1 -19.08-18.19q-3.68 2.55-7.47 5.68c-.21.19-.42.37-.62.53-1.57 1.36-2.65 2.28-3 2.65-29.18 26.14-59.5 76-80.38 137.09-22.89 66.94-28.59 130.19-18 168.18a54.1 54.1 0 0 1 26.4-3.86c1.3.12 2.6.29 3.88.52-5.87-38.48 1-94.52 21.09-153.42 20.88-61.06 51.2-110.95 80.38-137.09z" fill="#afbdf9"/><path d="m833.69 96.37c-12.92 11-27 23-33.16 28.27-1.26 1.08-2.2 1.9-2.72 2.36l-.33.29-33.39-11.42c.4-.37 1.48-1.29 3-2.65.2-.16.41-.34.62-.53 13.71-11.69 58.89-50.17 58.89-50.17s3.4 16.05 7.09 33.85z" fill="#243363"/><path d="m703.09 346.72h15.2v109.57h-15.2z" fill="#303d72" transform="matrix(.94619837 .32358715 -.32358715 .94619837 168.15 -208.36)"/><path d="m819.46 402.23-40 80.69-31.32-50.47c19-18.87 38.18-47.37 54.66-82.12.42-.87.83-1.75 1.26-2.65z" fill="#303d72"/><path d="m669.2 304.65c-8.26 37.55-10.54 71.85-7.08 98.39l-33.89 12.63-21.77 8.1 17.76-88.29 45.6-33.7c-.21.97-.43 1.92-.62 2.87z" fill="#243363"/><circle cx="780.38" cy="197.7" fill="#303d72" r="31.04"/><path d="m777.42 228.62a30.61 30.61 0 0 1 -7.08-1.53 31.06 31.06 0 0 1 20.1-58.77 30.25 30.25 0 0 1 6.53 3.13 31.06 31.06 0 0 0 -19.55 57.17z" fill="#243363"/><circle cx="758.27" cy="262.36" fill="#303d72" r="9.03"/><path d="m757.48 271.35a8.37 8.37 0 0 1 -2.12-.45 9 9 0 1 1 5.84-17.07 8.57 8.57 0 0 1 1.95.94 9 9 0 0 0 -5.67 16.58z" fill="#243363"/><circle cx="742.78" cy="307.65" fill="#303d72" r="9.03"/><path d="m779.44 482.92 9.61-27a269.87 269.87 0 0 0 15-108.23l15.42 54.55z" fill="#495889"/><path d="m742 316.64a8.46 8.46 0 0 1 -2.12-.45 9 9 0 1 1 5.84-17.07 8.57 8.57 0 0 1 1.95.94 9 9 0 0 0 -5.67 16.58z" fill="#243363"/><path d="m669.82 301.78a166 166 0 0 0 -39.2 91l-2.39 22.93-21.77 8.1 17.76-88.29z" fill="#17264c"/><rect fill="#e07373" height="16.18" rx="8.09" transform="matrix(.91899777 -.39426272 .39426272 .91899777 -170.92 208.49)" width="38.01" x="402.9" y="512.11"/><circle cx="334.77" cy="358.07" fill="#161762" r="23.43"/><path d="m404.74 516.68-10.21 56.93-.7 3.88-1.69-.27-49.29-7.93a32 32 0 0 1 -5.12-1.28c-.28-.1-.57-.2-.84-.31l-.95-.37-.9-.39c-.28-.12-.55-.25-.82-.39-.68-.33-1.36-.69-2-1.06l-.76-.47c-.38-.23-.75-.47-1.12-.73s-.47-.33-.7-.5c-.45-.32-.89-.64-1.31-1a31.07 31.07 0 0 1 -10.85-18c-.08-.39-.15-.79-.21-1.19a31.08 31.08 0 0 1 -.28-7.36c.07-.83.17-1.67.31-2.51s.27-1.48.45-2.2a30.85 30.85 0 0 1 34.93-23.27z" fill="#e07373"/><path d="m347 566a23.46 23.46 0 0 1 -5.9.6 24 24 0 0 1 -14.6-5.34 9.06 9.06 0 0 1 -.76-.63c-.5-.43-1-.89-1.43-1.36a4.21 4.21 0 0 1 -.36-.37l-.46-.51a18 18 0 0 1 -1.23-1.54 6.27 6.27 0 0 1 -.42-.59 17.42 17.42 0 0 1 -1-1.49l-.41-.73a21.35 21.35 0 0 1 -1-2.15c-.13-.31-.26-.62-.37-.93s-.23-.63-.33-.95-.2-.63-.3-1-.18-.65-.26-1-.15-.66-.21-1a23.86 23.86 0 0 1 -.44-5.17l.23-10.28 1.44-63.34a25.28 25.28 0 0 1 .26-3c.06-.43.14-.87.22-1.29s.23-1 .36-1.49.2-.7.32-1.05a10.38 10.38 0 0 1 .43-1.22c.1-.29.21-.56.33-.84a.24.24 0 0 1 .07-.13 5.53 5.53 0 0 1 .33-.74c.21-.46.42-.88.67-1.32.08-.15.16-.3.25-.45s.25-.41.37-.61a.05.05 0 0 1 0-.05c.16-.27.34-.53.52-.79a19.33 19.33 0 0 1 1.54-2 6.19 6.19 0 0 1 .47-.55c.37-.42.76-.81 1.16-1.2l.58-.55.26-.23c.2-.18.42-.36.63-.53s.49-.41.75-.6a.18.18 0 0 1 .07-.05l.75-.54c.27-.2.55-.37.83-.56a17.08 17.08 0 0 1 1.72-1c.19-.11.4-.22.6-.31a24.16 24.16 0 0 1 34.77 22.25l-1.64 73.63a24.15 24.15 0 0 1 -18.81 23z" fill="#8c285c"/><path d="m347 566a23.46 23.46 0 0 1 -5.9.6 24 24 0 0 1 -14.6-5.34 9.06 9.06 0 0 1 -.76-.63c-.49-.42-1-.88-1.43-1.36a4.21 4.21 0 0 1 -.36-.37l-.46-.51a18 18 0 0 1 -1.23-1.54 6.27 6.27 0 0 1 -.42-.59 17.42 17.42 0 0 1 -1-1.49l-.41-.73a21.35 21.35 0 0 1 -1-2.15c-.13-.31-.26-.62-.37-.93s-.23-.63-.33-.95-.2-.63-.3-1-.18-.65-.26-1-.15-.66-.21-1-.09-.42-.12-.62a2.1 2.1 0 0 1 -.06-.24c-.1-.44-.2-.88-.29-1.33s-.15-.78-.21-1.2c0-.09 0-.2-.05-.31 0-.4-.11-.8-.15-1.21l-.06-.65c0-.44-.07-.88-.09-1.32v-.62c0-.44 0-.88 0-1.32 0-.63 0-1.27.09-1.92.07-.83.17-1.66.31-2.51s.27-1.48.44-2.2l1.44-63.34a25.28 25.28 0 0 1 .26-3c.06-.43.14-.87.22-1.29s.23-1 .36-1.49.2-.7.32-1.05a10.38 10.38 0 0 1 .43-1.22c.1-.29.21-.56.33-.84a.24.24 0 0 1 .07-.13 5.53 5.53 0 0 1 .33-.74c.21-.46.42-.88.67-1.32.08-.15.16-.3.25-.45s.25-.41.37-.61a.05.05 0 0 1 0-.05c.16-.27.34-.53.52-.79a19.33 19.33 0 0 1 1.54-2 6.19 6.19 0 0 1 .47-.55 16.43 16.43 0 0 1 1.16-1.2l.58-.55.26-.23c.2-.18.42-.36.63-.53s.49-.41.75-.6a.18.18 0 0 1 .07-.05l.75-.54a7.07 7.07 0 0 1 .63-.44l.2-.12a17.08 17.08 0 0 1 1.72-1 5.2 5.2 0 0 1 .62-.32 24.09 24.09 0 0 0 -8.6 17.94l-1.26 55.54-.19 7.81-.23 10.27a23.83 23.83 0 0 0 .33 4.57 30.74 30.74 0 0 0 4 9.21 31.55 31.55 0 0 0 4.79 5.71 30.63 30.63 0 0 0 15.44 7.84z" fill="#38cea1"/><path d="m383 567.09c-9.91-22-2.44-41.84 11.93-52.07l45.17 7.45a19 19 0 0 1 15.1 13.33 38.91 38.91 0 0 1 1.07 17.47c-4.84 29.38-41.23 45.69-68.81 20a19.4 19.4 0 0 1 -4.46-6.18z" fill="#e07373"/><path d="m318.49 868.66h42.93v35.24h-42.93z" fill="#d85e66"/><path d="m318.49 868.66v9.41a28.63 28.63 0 0 0 42.93 0v-9.42z" fill="#c44e5f"/><path d="m311.32 602.14v251.93a28.55 28.55 0 0 0 11.68 23.08 27.36 27.36 0 0 0 4 2.44 28.33 28.33 0 0 0 13.15 3.11c15.84-.11 28.44-13.43 28.44-29.27v-251.29z" fill="#e6ac3f"/><circle cx="337.53" cy="473.75" fill="#8c285c" r="36.72"/><path d="m298.22 446.93h43.05l-7.11-51.32h-43.04z" fill="#f0a284"/><path d="m295.33 426c16.08-.19 34.8.94 42.57-3.46l-3.74-27h-43z" fill="#ea7d7d"/><path d="m300.27 446.93h47.53l-6.27-17.79a2.71 2.71 0 0 0 -2.57-1.81h-41.75a2.72 2.72 0 0 0 -2.57 3.62z" fill="#8c285c"/><path d="m219.18 903.15h46.11l7.2-26.27 4.39-16.01h-46.12l-1.39 5.08z" fill="#f0a284"/><path d="m317.71 430.17a50.07 50.07 0 0 0 -48.68 50 49.49 49.49 0 0 0 4 19.32c10 23.58 14.7 49.1 14.7 74.73a29.09 29.09 0 0 0 29.09 29.09h11.46a40.56 40.56 0 0 0 40.55-40.55v-82.76a49.88 49.88 0 0 0 -51.12-49.83z" fill="#8c285c"/><path d="m361.28 562.8v-82.8a49.88 49.88 0 0 0 -24.45-42.91l-1.48-4.19-1.35-3.75a2.74 2.74 0 0 0 -2.57-1.82h7.57a2.74 2.74 0 0 1 2.57 1.82l2.81 8a49.85 49.85 0 0 1 24.41 42.85v82.8a40.54 40.54 0 0 1 -40.55 40.55h-7.52a40.55 40.55 0 0 0 40.56-40.55z" fill="#af437c"/><path d="m229.37 866a26 26 0 0 0 43.12 10.93l4.39-16h-46.12z" fill="#d85e66"/><path d="m287.21 564.83h81.53a0 0 0 0 1 0 0v33.85a40.77 40.77 0 0 1 -40.74 40.77 40.77 40.77 0 0 1 -40.77-40.77v-33.85a0 0 0 0 1 0 0z" fill="#f9c847"/><path d="m239.09 875.2a24.43 24.43 0 0 0 3.55 2.29 26 26 0 0 0 37.59-17l60.38-258.34-33.34-.29h-4l-15.95-.14-57.73 247a26 26 0 0 0 9.5 26.48z" fill="#f9c847"/><path d="m280.18 351.94.24 2.81.23 2.73.58 6.88.14 1.73.12 1.41 2 24.3v.2l.19 2.24a32.26 32.26 0 0 0 29.36 29.45 32.67 32.67 0 0 0 5.51 0l11-.93a26.19 26.19 0 0 0 24-26.75c0-.51 0-1-.08-1.54l-2.77-33.57-.1-1.2-.11-1.44-.13-1.53a23.87 23.87 0 0 0 -25.8-21.82l-32.28 2.71a11.19 11.19 0 0 0 -1.43.21 13.25 13.25 0 0 0 -10.67 14.11z" fill="#f0a284"/><path d="m280.18 351.94.24 2.81.23 2.73.35 4.22.23 2.66.14 1.73.12 1.41 2 24.3v.2l.19 2.24a32.39 32.39 0 0 0 .89 5.27c.05.22.11.45.18.68a32.25 32.25 0 0 0 28.29 23.5 32.67 32.67 0 0 0 5.51 0l11-.93a26.19 26.19 0 0 0 24-26.75c0-.51 0-1-.08-1.54l-2.77-33.57-.1-1.2-.11-1.44-.13-1.53a23.89 23.89 0 0 0 -25.8-21.82l-32.28 2.71a11.19 11.19 0 0 0 -1.43.21 13.25 13.25 0 0 0 -10.67 14.11z" fill="#f0a284"/><path d="m285.22 352.76a10.87 10.87 0 0 1 10.87 10.87v16.67a10.6 10.6 0 0 1 -10.6 10.6h-15.63a0 0 0 0 1 0 0v-22.78a15.36 15.36 0 0 1 15.36-15.36z" fill="#161762" transform="matrix(-.98942477 .14504699 -.14504699 -.98942477 616.91 698.66)"/><path d="m302.21 317.33h59.1a0 0 0 0 1 0 0v12.54a29.77 29.77 0 0 1 -29.77 29.77h-59.1a0 0 0 0 1 0 0v-12.54a29.77 29.77 0 0 1 29.77-29.77z" fill="#161762" transform="matrix(-.98942477 .14504699 -.14504699 -.98942477 679.52 627.4)"/><path d="m304.64 329h32.67a0 0 0 0 1 0 0v7a16.45 16.45 0 0 1 -16.45 16.45h-32.68a0 0 0 0 1 0 0v-6.93a16.45 16.45 0 0 1 16.46-16.52z" fill="#2329ad" transform="matrix(-.98942477 .14504699 -.14504699 -.98942477 671.62 632.47)"/><circle cx="338.22" cy="371.24" fill="#161762" r="3.45"/><circle cx="316.19" cy="373.01" fill="#161762" r="3.45"/><path d="m330.73 395.71h.65a8.31 8.31 0 0 1 8.32 8.29.92.92 0 0 1 -.92.92h-15.44a.92.92 0 0 1 -.92-.92 8.31 8.31 0 0 1 8.31-8.31z" fill="#fff" transform="matrix(-.9958527 .0909802 -.0909802 -.9958527 697.16 768.89)"/><path d="m232.93 868.44a26 26 0 0 0 47.3-8l40.91-175.06-44.82 162.56a30.67 30.67 0 0 1 -43.39 20.5z" fill="#fcd681"/><path d="m319.6 898.78 25.37-2a27.28 27.28 0 0 1 50.19 14.84h-81.81v-6.12a6.77 6.77 0 0 1 6.25-6.72z" fill="#2329ad"/><path d="m365.06 884.5a27.29 27.29 0 0 1 24.47 27.15h5.63a27.29 27.29 0 0 0 -27.29-27.3 26.17 26.17 0 0 0 -2.81.15z" fill="#3e48cc"/><path d="m308.25 915.65a4.21 4.21 0 0 0 3.67 4.18 3.31 3.31 0 0 0 .55 0h81.39a5.17 5.17 0 0 0 .68 0 6.41 6.41 0 0 0 0-12.74 5.78 5.78 0 0 0 -1 0l-3.13.16-8.93.48-4.15.23-8.92.48-4.16.22-8.92.48-4.15.22-8.92.48-4.16.23-8.92.48-4.16.22-8.92.48-3.83.21h-.33a4.22 4.22 0 0 0 -3.67 4.18z" fill="#161762"/><g fill="#2329ad"><path d="m390.39 907.23v12.64h4.15v-12.78a5.78 5.78 0 0 0 -1 0z"/><path d="m377.31 907.94v11.93h4.15v-12.15z"/><path d="m364.23 908.64v11.23h4.16v-11.45z"/><path d="m351.16 909.35v10.52h4.15v-10.75z"/><path d="m338.08 910.05v9.82h4.16v-10.05z"/><path d="m325 910.75v9.12h4.16v-9.34z"/><path d="m311.92 911.47v8.4h4.16v-8.64l-3.83.21z"/><path d="m221.34 898.78 25.37-2a27.28 27.28 0 0 1 50.19 14.84h-81.81v-6.12a6.77 6.77 0 0 1 6.25-6.72z"/></g><path d="m266.8 884.5a27.29 27.29 0 0 1 24.46 27.15h5.64a27.29 27.29 0 0 0 -27.29-27.3 26.17 26.17 0 0 0 -2.81.15z" fill="#3e48cc"/><path d="m210 915.65a4.21 4.21 0 0 0 3.67 4.18 3.31 3.31 0 0 0 .55 0h81.38a5.17 5.17 0 0 0 .68 0 6.41 6.41 0 0 0 0-12.74 5.78 5.78 0 0 0 -1 0l-3.13.16-8.93.48-4.15.23-8.92.48-4.16.22-8.92.48-4.15.22-8.92.48-4.16.23-8.92.48-4.16.22-8.92.48-3.83.21h-.33a4.22 4.22 0 0 0 -3.67 4.18z" fill="#161762"/><g fill="#2329ad"><path d="m292.13 907.23v12.64h4.15v-12.78a5.78 5.78 0 0 0 -1 0z"/><path d="m279.05 907.94v11.93h4.15v-12.15z"/><path d="m265.97 908.64v11.23h4.16v-11.45z"/><path d="m252.9 909.35v10.52h4.15v-10.75z"/><path d="m239.82 910.05v9.82h4.16v-10.05z"/><path d="m226.74 910.75v9.12h4.16v-9.34z"/><path d="m213.66 911.47v8.4h4.16v-8.64l-3.83.21z"/></g><circle cx="282.68" cy="473.75" fill="#8c285c" r="32.77"/><circle cx="282.68" cy="381.6" fill="#f0a284" r="12.11"/><circle cx="437.21" cy="479.84" fill="#2329ad" r="4.63"/><path d="m436.29 480.84h2.64v52.52h-2.64z" fill="#2329ad"/><path d="m437.61 480.84h2.64v52.52h-2.64z" fill="#161762"/><circle cx="438.53" cy="479.84" fill="#161762" r="4.63"/><rect fill="#4551dd" height="28.46" rx="3.31" width="24.26" x="393.02" y="520.2"/><rect fill="#2329ad" height="28.46" rx="3.31" width="24.26" x="404.33" y="520.2"/><rect fill="#2329ad" height="28.46" rx="5.08" width="57.3" x="368.79" y="532.57"/><rect fill="#161762" height="28.46" rx="5.08" width="57.3" x="395.52" y="532.57"/><g fill="#ea7d7d"><rect height="16.18" rx="8.09" width="32.63" x="431.86" y="531.1"/><rect height="16.18" rx="8.09" width="32.63" x="431.86" y="546.32"/><rect height="16.18" rx="8.09" transform="matrix(.91545201 .40242716 -.40242716 .91545201 267.01 -130.14)" width="32.63" x="426.85" y="562.16"/></g><rect fill="#8c285c" height="121.95" rx="24.16" transform="matrix(-.98372863 -.17966075 .17966075 -.98372863 449.51 1067.81)" width="48.32" x="248.93" y="452.58"/><path d="m262.86 460a24.17 24.17 0 0 1 30.87 27.43l-13.22 72.44a24.07 24.07 0 0 1 -6.93 13 24.15 24.15 0 0 0 16.66-18.75l13.22-72.44a24.16 24.16 0 0 0 -40.6-21.68z" fill="#72194c"/><path d="m349.89 598.08c15.44 1.71 29.47-10.65 31.34-27.6 1.43-12.92-4.61-24.79-14.41-30.46a26 26 0 0 0 -10.12-3.33l-85.11-9.42c-15.43-1.71-29.46 10.65-31.34 27.6-1.87 17 9.11 32.08 24.54 33.79z" fill="#f0a284"/><rect fill="#fcb798" height="53.63" rx="7.58" transform="matrix(.12758395 -.99182778 .99182778 .12758395 -313.34 787.58)" width="15.15" x="283.41" y="545.07"/><g fill="#f0a284"><path d="m324.64 586.7c-10.6-21.63-3.76-41.74 10.28-52.42l45.38 6a19 19 0 0 1 15.51 12.85 39 39 0 0 1 1.63 17.42c-3.91 29.51-39.77 47-68.15 22.17a19.33 19.33 0 0 1 -4.65-6.02z"/><rect height="19.17" rx="9.58" width="49.18" x="360.69" y="537.7"/><rect height="19.17" rx="9.58" transform="matrix(.97752641 .21081299 -.21081299 .97752641 131.19 -67.01)" width="49.18" x="355.27" y="572.15"/><rect height="19.17" rx="9.58" transform="matrix(.9919166 .12689149 -.12689149 .9919166 74.81 -44.34)" width="65.83" x="352.36" y="555.25"/></g></svg>