<svg viewBox="0 0 1000 1000" xmlns="http://www.w3.org/2000/svg"><path d="m808.78 657.2v-16.06a101.56 101.56 0 0 0 -101.55-101.55 43.41 43.41 0 0 1 -43.41-43.4 43.41 43.41 0 0 1 43.41-43.41h111.21a91.42 91.42 0 0 0 91.42-91.42 91.41 91.41 0 0 0 -91.42-91.36h-139.27a43.41 43.41 0 0 1 -43.4-43.41 49.64 49.64 0 0 0 -49.65-49.64h-12.93a43.41 43.41 0 0 1 -43.41-43.41v-6.24a43.41 43.41 0 0 0 -43.41-43.4h-251.37a43.4 43.4 0 0 0 -43.41 43.4v6.24a43.41 43.41 0 0 0 43.41 43.36h19.17a43.41 43.41 0 0 1 43.41 43.4v6.24a43.42 43.42 0 0 1 -43.45 43.46h-117.68a91.4 91.4 0 0 0 -91.45 91.36 91.41 91.41 0 0 0 91.41 91.42h56.89a43.4 43.4 0 0 1 43.41 43.41 43.4 43.4 0 0 1 -43.41 43.4h-73.21a75 75 0 0 0 -75.05 75v12.47a75 75 0 0 0 75.05 75 43.41 43.41 0 0 1 43.4 43.41v58.67a58.93 58.93 0 0 0 58.93 58.93h651.26a81.28 81.28 0 0 0 81.32-81.18 81.29 81.29 0 0 0 -81.28-81.29h-21.53a43.4 43.4 0 0 1 -43.41-43.4z" fill="#f3f4fe"/><g fill="none" stroke="#d6d8e5" stroke-linecap="round" stroke-miterlimit="10" stroke-width="6"><path d="m312.42 69.49 20.27 28.71"/><path d="m239.66 84.31 20.26 28.7"/><path d="m219.39 178.67 20.27 28.71"/><path d="m102.5 89.54 20.26 28.71"/><path d="m371.68 160.08 20.26 28.71"/><path d="m313.59 267.1 20.27 28.71"/><path d="m229.53 396.76 20.26 28.71"/><path d="m290.62 506.99 20.26 28.71"/><path d="m92.36 394.9 20.27 28.71"/><path d="m229.53 284.71 20.26 28.7"/><path d="m306.27 405.23 20.27 28.71"/><path d="m131.26 246.35 20.26 28.71"/><path d="m164.98 495.63 20.26 28.7"/><path d="m229.53 575.37 20.26 28.71"/><path d="m196.4 635.13 20.26 28.7"/><path d="m541.22 415.81 20.26 28.7"/><path d="m541.22 525.25 20.26 28.7"/><path d="m541.22 770.67 20.26 28.71"/><path d="m496.04 649.48 20.26 28.71"/><path d="m296.14 721.1 20.27 28.7"/><path d="m390.12 100.69 20.26 28.71"/><path d="m491.1 101.78 20.27 28.71"/><path d="m563.78 116.14 20.26 28.71"/><path d="m531.08 211.93 20.27 28.71"/><path d="m745.33 355.14 20.26 28.7"/><path d="m642.97 372.4 20.26 28.7"/><path d="m707.61 444.8 20.26 28.71"/><path d="m793.32 491.11 20.26 28.71"/><path d="m646.48 558.8 20.26 28.7"/><path d="m603.48 214.44 20.26 28.71"/><path d="m682.3 184.35 20.27 28.71"/><path d="m636.35 459.16 20.26 28.7"/><path d="m593.34 678.19 20.27 28.7"/><path d="m707.61 649.48 20.26 28.71"/><path d="m745.33 539.6 20.26 28.71"/><path d="m460.74 178.67 20.26 28.71"/><path d="m503.87 305.35 20.26 28.71"/></g><circle cx="518.49" cy="462.79" fill="#01a171" r="36.72"/><path d="m546.06 579c-6.35-23.23 4.16-41.7 20-49.55l43.44 14.45a19 19 0 0 1 12.82 15.54 39.07 39.07 0 0 1 -1.68 17.42c-9.4 28.25-47.9 38.64-71.11 8.95a19.26 19.26 0 0 1 -3.47-6.81z" fill="#d85e66"/><path d="m568 600.47a39.16 39.16 0 0 0 54.27-41 19 19 0 0 0 -12.82-15.54l-6.24-2.07a19 19 0 0 1 12.79 15.49 39.19 39.19 0 0 1 -48 43.12z" fill="#ed858f"/><path d="m564.55 594.05a30.89 30.89 0 0 0 39.06-19.55 30.9 30.9 0 0 0 -9.37-33.34 30.8 30.8 0 0 0 -10.17-5.7l-58.67-19.26a30.88 30.88 0 0 0 -38.94 19.59 30.88 30.88 0 0 0 19.67 39.09z" fill="#00875a"/><rect fill="#00875a" height="121.95" rx="24.16" transform="matrix(-.98375997 -.17948905 .17948905 -.98375997 931.26 1108.04)" width="48.32" x="491.59" y="450.92"/><path d="m504 469-10 54.65-1.4 7.68-1.85 10.1a24.56 24.56 0 0 0 -.4 4.57 31.09 31.09 0 0 0 6.37 16.12 30.75 30.75 0 0 0 14 10.14l.73.25 37.22 12.23 10.2 3.34a48 48 0 0 0 8.23 6.74 39.34 39.34 0 0 0 34.9 4.18c-14.45 7.79-33.73 6.51-48.47-8.51l-47.43-15.58a30.8 30.8 0 0 1 -14.76-10.4 24.23 24.23 0 0 1 -6.34-16.19 30.69 30.69 0 0 1 1.46-12.55c.24-.72.5-1.41.79-2.1l11.36-62.33a24.11 24.11 0 0 1 14-17.74 22.62 22.62 0 0 1 2.74-1 24.08 24.08 0 0 0 -11.35 16.4z" fill="#38cea1"/><path d="m532.8 539.86h56.93a9.55 9.55 0 0 1 9.55 9.55v38.91a0 0 0 0 1 0 0h-66.48a0 0 0 0 1 0 0v-48.46a0 0 0 0 1 0 0z" fill="#0d0f38" transform="matrix(-.44275823 .89664104 -.89664104 -.44275823 1322.46 306.36)"/><circle cx="587.87" cy="570.41" fill="#0d0f38" r="39.14"/><path d="m621.9 589.72a39.14 39.14 0 0 0 -69.83-35.16 39.14 39.14 0 1 1 69.83 35.16z" fill="#141a5b"/><rect fill="#141a5b" height="26.54" rx="13.27" transform="matrix(.78032127 .62537886 -.62537886 .78032127 485.81 -263.38)" width="40.6" x="597.52" y="546.58"/><path d="m636.42 566.27.06-.47c0-.21 0-.42.06-.63s0-.6 0-.9 0-.42 0-.63v-.6l-.06-.54c0-.21-.07-.42-.11-.63a4 4 0 0 0 -.09-.48c-.07-.34-.16-.69-.26-1l-.12-.33c-.08-.26-.17-.51-.27-.76l-.18-.4a7.32 7.32 0 0 0 -.33-.69l-.18-.36c-.18-.33-.38-.66-.59-1l-.11-.14q-.29-.41-.6-.81l-.25-.29-.57-.63-.28-.27a11.69 11.69 0 0 0 -.91-.81l-11-8.8a13.27 13.27 0 0 0 -21.49 9 13 13 0 0 1 2.36-4.53 13.27 13.27 0 0 1 13-4.71 13.13 13.13 0 0 1 5.7 2.66l11 8.79a9 9 0 0 1 3.19 8.26 13.26 13.26 0 0 1 -21.42 8.37l2.03 1.66a13.24 13.24 0 0 0 21.19-7.26c0-.14.07-.28.1-.41z" fill="#1e297a"/><rect fill="#141a5b" height="39.06" rx="19.53" transform="matrix(.78032127 .62537886 -.62537886 .78032127 498.45 -248.57)" width="52.98" x="576.57" y="565.72"/><rect fill="#0d0f38" height="20.7" rx="10.35" transform="matrix(.95062412 .31034462 -.31034462 .95062412 200.18 -157.27)" width="40.6" x="574.14" y="540.23"/><circle cx="575.37" cy="552.91" fill="#0d0f38" r="20.24"/><rect fill="#141a5b" height="21.18" rx="10.59" transform="matrix(-.44275823 .89664104 -.89664104 -.44275823 1289.78 316.55)" width="81.62" x="505.72" y="548.44"/><path d="m570.41 530.48a10.57 10.57 0 0 1 -1 6.15l-1.26 2.54a10.44 10.44 0 0 0 1-6.09 10.6 10.6 0 0 0 -20-3.23l1.29-2.6a10.59 10.59 0 0 1 20 3.23z" fill="#1e297a"/><rect fill="#1e297a" height="23.16" rx="11.58" transform="matrix(.78 .63 -.63 .78 496.23 -249.31)" width="31.41" x="587.3" y="570.15"/><path d="m496.78 424.82a79.93 79.93 0 0 1 79.93 79.93v145.82a51.6 51.6 0 0 1 -51.6 51.6 51.6 51.6 0 0 1 -51.6-51.6v-202.49a23.27 23.27 0 0 1 23.27-23.27z" fill="#01a171"/><path d="m496.78 424.82a79.93 79.93 0 0 1 79.93 79.93v145.82a51.6 51.6 0 0 1 -51.6 51.6 51.6 51.6 0 0 1 -51.6-51.6v-202.49a23.27 23.27 0 0 1 23.27-23.27z" fill="#008257"/><path d="m576.7 504.74v145.83a51.66 51.66 0 0 1 -64.65 49.93h2a51.6 51.6 0 0 0 51.6-51.6v-145.79a79.93 79.93 0 0 0 -62.84-78.11 80 80 0 0 1 73.89 79.74z" fill="#01a171"/><path d="m500.44 861.69h42.93v35.24h-42.93z" fill="#d85e66"/><path d="m500.44 861.69v9.41a28.63 28.63 0 0 0 42.93 0v-9.42z" fill="#c44e5f"/><path d="m493.27 595.17v251.93a28.55 28.55 0 0 0 11.73 23.08 27.36 27.36 0 0 0 4 2.44c11.48 5.87 27.39 4.17 41.59-11.52v-265.93z" fill="#0d0f38"/><path d="m401.13 896.18h46.11l7.2-26.27 4.39-16.01h-46.11l-1.4 5.09z" fill="#f0a284"/><path d="m411.32 859a26 26 0 0 0 43.12 10.92l4.39-16h-46.11z" fill="#d85e66"/><path d="m469.16 557.86h81.53a0 0 0 0 1 0 0v33.85a40.77 40.77 0 0 1 -40.77 40.77 40.77 40.77 0 0 1 -40.77-40.77v-33.85a0 0 0 0 1 .01 0z" fill="#0538a1"/><path d="m421 868.23a24.43 24.43 0 0 0 3.55 2.29 26 26 0 0 0 37.59-17l60.38-258.34-33.34-.29h-4l-16-.14-57.73 247a26 26 0 0 0 9.55 26.48z" fill="#0538a1"/><path d="m414.88 861.48a26 26 0 0 0 47.3-8l40.92-175.04-44.83 162.56a30.69 30.69 0 0 1 -43.39 20.51z" fill="#114dbd"/><path d="m493.27 906.82h57.42l3.47-66.09a5.26 5.26 0 0 0 -5.26-5.54h-53.84a5.26 5.26 0 0 0 -5.26 5.54z" fill="#ffab00"/><path d="m501.55 891.81 25.38-2a27.29 27.29 0 0 1 50.19 14.84h-81.81v-6.12a6.76 6.76 0 0 1 6.24-6.72z" fill="#ffab00"/><path d="m547 877.53a27.3 27.3 0 0 1 24.47 27.15h5.64a27.29 27.29 0 0 0 -27.3-27.29 26.18 26.18 0 0 0 -2.81.14z" fill="#ffc300"/><path d="m490.2 908.68a4.21 4.21 0 0 0 3.68 4.18 3.24 3.24 0 0 0 .55 0h81.38a5.07 5.07 0 0 0 .68 0 6.41 6.41 0 0 0 5.73-6.37 6.42 6.42 0 0 0 -5.73-6.37 6.89 6.89 0 0 0 -1 0l-3.13.16-8.92.49-4.16.22-8.92.48-4.15.22-8.93.48-4.15.23-8.92.48-4.16.22-8.92.48-4.15.22-8.93.48-3.83.21a3.16 3.16 0 0 0 -.32 0 4.25 4.25 0 0 0 -2.52 1.28 4.18 4.18 0 0 0 -1.18 2.91z" fill="#0d0f38"/><g fill="#333772"><path d="m572.34 900.26v12.64h4.15v-12.78a6.89 6.89 0 0 0 -1 0z"/><path d="m559.26 900.97v11.93h4.16v-12.15z"/><path d="m546.19 901.67v11.23h4.15v-11.45z"/><path d="m533.11 902.38v10.52h4.15v-10.75z"/><path d="m520.03 903.08v9.82h4.16v-10.04z"/><path d="m506.96 903.78v9.12h4.16v-9.34z"/><path d="m493.88 904.5v8.4h4.12v-8.64l-3.83.21a3.16 3.16 0 0 0 -.29.03z"/></g><path d="m395.25 906.82h57.42l16.4-65a5.4 5.4 0 0 0 -5.24-6.72h-53.35a5.41 5.41 0 0 0 -5.35 4.61z" fill="#ffab00"/><path d="m403.29 891.81 25.38-2a27.29 27.29 0 0 1 50.19 14.84h-81.81v-6.12a6.76 6.76 0 0 1 6.24-6.72z" fill="#ffab00"/><path d="m448.75 877.53a27.3 27.3 0 0 1 24.47 27.15h5.64a27.29 27.29 0 0 0 -27.3-27.29 26.18 26.18 0 0 0 -2.81.14z" fill="#ffc300"/><path d="m391.94 908.68a4.21 4.21 0 0 0 3.68 4.18 3.24 3.24 0 0 0 .55 0h81.38a5.07 5.07 0 0 0 .68 0 6.41 6.41 0 0 0 5.73-6.37 6.42 6.42 0 0 0 -5.73-6.37 6.92 6.92 0 0 0 -1 0l-3.13.16-8.92.49-4.18.23-8.92.48-4.15.22-8.93.48-4.15.23-8.92.48-4.16.22-8.92.48-4.15.22-8.93.48-3.83.21a3.16 3.16 0 0 0 -.32 0 4.22 4.22 0 0 0 -3.68 4.18z" fill="#0d0f38"/><g fill="#333772"><path d="m474.08 900.26v12.64h4.15v-12.78a6.92 6.92 0 0 0 -1 0z"/><path d="m461 900.97v11.93h4.16v-12.15z"/><path d="m447.93 901.67v11.23h4.15v-11.45z"/><path d="m434.85 902.38v10.52h4.15v-10.75z"/><path d="m421.77 903.08v9.82h4.16v-10.04z"/><path d="m408.7 903.78v9.12h4.15v-9.34z"/><path d="m395.62 904.5v8.4h4.15v-8.64l-3.83.21a3.16 3.16 0 0 0 -.32.03z"/></g><path d="m480.18 439.96h43.04l-7.1-51.32h-43.05z" fill="#d85e66"/><path d="m482.23 440h47.52l-6.27-17.78a2.71 2.71 0 0 0 -2.56-1.82h-41.76a2.71 2.71 0 0 0 -2.56 3.6z" fill="#06b781"/><path d="m527.77 338.31a12.88 12.88 0 0 1 12.88 12.88v12.71a12.56 12.56 0 0 1 -12.56 12.56h-18.52a0 0 0 0 1 0 0v-19.95a18.2 18.2 0 0 1 18.2-18.2z" fill="#54233a" transform="matrix(-.98942477 .14504699 -.14504699 -.98942477 1096.52 634.79)"/><path d="m538.1 357.28a18.19 18.19 0 0 1 -8.42 18.12 18.2 18.2 0 0 0 10.93-19.4l-2.9-19.73-18.32 2.73a12.54 12.54 0 0 0 -5.14 2 12.55 12.55 0 0 1 2.63-.69l18.33-2.68z" fill="#662f49"/><path d="m481.52 423.19a79.93 79.93 0 0 1 79.93 79.93v40a51.6 51.6 0 0 1 -51.6 51.6 51.6 51.6 0 0 1 -51.6-51.6v-96.67a23.27 23.27 0 0 1 23.27-23.27z" fill="#06b781"/><path d="m462.14 345 .23 2.82.23 2.72.58 6.88.14 1.73.12 1.41 2 24.3v.22l.19 2.24a32.23 32.23 0 0 0 29.37 29.42 31.77 31.77 0 0 0 5.52 0l11-.93a26.18 26.18 0 0 0 24-26.75c0-.51 0-1-.08-1.54l-2.82-33.61-.1-1.2-.12-1.44-.13-1.53a23.44 23.44 0 0 0 -1.17-5.65 23.9 23.9 0 0 0 -24.63-16.17l-32.27 2.71a12.94 12.94 0 0 0 -1.43.21 13.24 13.24 0 0 0 -10.63 14.16z" fill="#f0a284"/><path d="m462.14 345 .23 2.82.23 2.72.36 4.23.22 2.65.14 1.73.12 1.41 2 24.3v.22l.19 2.24a31.34 31.34 0 0 0 .88 5.27c.05.22.11.45.18.68a32.25 32.25 0 0 0 28.31 23.47 31.77 31.77 0 0 0 5.52 0l11-.93a26.18 26.18 0 0 0 24-26.75c0-.51 0-1-.08-1.54l-2.82-33.61-.1-1.2-.12-1.44-.13-1.53a23.44 23.44 0 0 0 -1.17-5.65 23.9 23.9 0 0 0 -24.63-16.17l-32.27 2.71a12.94 12.94 0 0 0 -1.43.21 13.24 13.24 0 0 0 -10.63 14.16z" fill="#f0a284"/><path d="m539.34 424-.09 2.55a16.55 16.55 0 0 1 -17.11 16h-.4l-18.74-.67-27-.91a16.56 16.56 0 0 1 -16-17.12l.08-2.55a16.57 16.57 0 0 1 17.12-16l11.84.4 34.24 1.15a16.57 16.57 0 0 1 16 17.12z" fill="#ffab00"/><path d="m544 546.12a10.5 10.5 0 0 1 -10.5-10.5v-40.92a60.37 60.37 0 0 0 -14.33-39l-11-12.92a10.5 10.5 0 1 1 16-13.59l11 12.92a81.37 81.37 0 0 1 19.32 52.62v40.92a10.5 10.5 0 0 1 -10.49 10.47z" fill="#ffab00"/><path d="m549.86 496.27v40.93a10.5 10.5 0 0 1 -21 0v-40.93a60.35 60.35 0 0 0 -14.34-39l-11-12.91a10.49 10.49 0 0 1 1.2-14.8 10.51 10.51 0 0 1 14.8 1.2l11 12.92a81.42 81.42 0 0 1 19.34 52.59z" fill="#ed9700"/><path d="m521.74 442.51-18.74-.63a21.09 21.09 0 0 1 -12.19-17.26l-1.72-18.91 34.24 1.15a16.51 16.51 0 0 1 12.41 6.26l.67 7.33a21.12 21.12 0 0 1 -14.67 22.06z" fill="#ed9700"/><path d="m495.54 416.78a31.19 31.19 0 0 0 5 0l11-.93a26.18 26.18 0 0 0 24-26.75c0-.51 0-1-.08-1.54l-2.82-33.61-.1-1.2-.12-1.44-.13-1.53a23.44 23.44 0 0 0 -1.17-5.65 23.9 23.9 0 0 0 -24.63-16.17h-.36a23.89 23.89 0 0 1 20.31 16.14 23.44 23.44 0 0 1 1.17 5.65l.13 1.53.12 1.44.1 1.2 2.82 33.61c0 .51.07 1 .09 1.54a26.19 26.19 0 0 1 -24 26.75l-11 .93z" fill="#fcb798"/><rect fill="#54233a" height="57.6" rx="19.2" transform="matrix(.9958527 -.0909802 .0909802 .9958527 -35.27 48.33)" width="40.36" x="492.41" y="382.31"/><path d="m469.94 345.2a12.88 12.88 0 0 1 12.88 12.88v12.71a12.56 12.56 0 0 1 -12.56 12.56h-18.52a0 0 0 0 1 0 0v-19.95a18.2 18.2 0 0 1 18.2-18.2z" fill="#54233a" transform="matrix(-.96965905 .24446129 -.24446129 -.96965905 1009.44 603.23)"/><circle cx="464.63" cy="374.64" fill="#f0a284" r="12.11"/><path d="m461.1 374.62a5.8 5.8 0 0 0 3.55 5.35 1.65 1.65 0 0 0 2.24-1.58v-7.54a1.68 1.68 0 0 0 -2.4-1.51 5.81 5.81 0 0 0 -3.39 5.28z" fill="#d85e66"/><rect fill="#54233a" height="35.57" rx="17.38" transform="matrix(-.98942477 .14504699 -.14504699 -.98942477 1028.73 599.98)" width="89.89" x="447.54" y="319.72"/><rect fill="#54233a" height="35.57" rx="17.78" transform="matrix(-.98942477 .14504699 -.14504699 -.98942477 1057.9 581.29)" width="69.58" x="472.96" y="311.44"/><path d="m537.5 324.86a17.79 17.79 0 0 1 -14.83 20.14l4.49-.66a17.78 17.78 0 0 0 -2.56-35.34 17.59 17.59 0 0 0 -2.6.19l-4.63.68a17 17 0 0 1 2.55-.18 17.79 17.79 0 0 1 17.58 15.17z" fill="#662f49"/><rect fill="#662f49" height="20.17" rx="10.09" transform="matrix(-.98459487 .17485122 -.17485122 -.98459487 1080.12 556.51)" width="36.21" x="497.45" y="315.73"/><circle cx="520.17" cy="364.27" fill="#54233a" r="3.45"/><circle cx="498.15" cy="366.04" fill="#54233a" r="3.45"/><path d="m512.69 388.75h.65a8.31 8.31 0 0 1 8.31 8.31.92.92 0 0 1 -.92.92h-15.44a.92.92 0 0 1 -.92-.92 8.31 8.31 0 0 1 8.32-8.31z" fill="#fff" transform="matrix(-.9958527 .0909802 -.0909802 -.9958527 1059.68 738.43)"/><circle cx="461.1" cy="461.28" fill="#01a171" r="36.72"/><path d="m459.67 424.82a79.93 79.93 0 0 1 79.93 79.93v145.82a51.6 51.6 0 0 1 -51.6 51.6h-29.19a22.41 22.41 0 0 1 -22.41-22.41v-231.68a23.27 23.27 0 0 1 23.27-23.26z" fill="#01a171"/><path d="m539.6 504.74v145.83a51.6 51.6 0 0 1 -51.6 51.59h-29.19a22.06 22.06 0 0 1 -7-1.13h18.89a51.6 51.6 0 0 0 51.6-51.6v-145.83a79.93 79.93 0 0 0 -65.47-78.6 22.21 22.21 0 0 1 2.84-.18 79.94 79.94 0 0 1 79.93 79.92z" fill="#06b781"/><path d="m462.16 602.44h56.27a1.06 1.06 0 0 1 1.06 1.06v20.76a25.22 25.22 0 0 1 -25.22 25.22h-7.94a25.22 25.22 0 0 1 -25.22-25.22v-20.77a1.06 1.06 0 0 1 1.05-1.05z" fill="#007249"/><path d="m462.16 598h56.27a1.06 1.06 0 0 1 1.06 1.06v20.76a25.22 25.22 0 0 1 -25.23 25.18h-7.94a25.22 25.22 0 0 1 -25.22-25.22v-20.78a1.06 1.06 0 0 1 1.06-1.06z" fill="#008257"/><rect fill="#06b781" height="121.95" rx="24.16" transform="matrix(-.9323869 -.36146184 .36146184 -.9323869 682.6 1122)" width="48.32" x="422.09" y="436.17"/><path d="m446.29 442.64a24.16 24.16 0 0 1 25.15 32.75l-26.62 68.61a24 24 0 0 1 -9.25 11.45 24.12 24.12 0 0 0 19.89-15.28l26.62-68.65a24.15 24.15 0 0 0 -35.79-28.92z" fill="#38cea1"/><path d="m505.78 594.62c14.83 4.58 30.94-4.91 36-21.21 3.84-12.43.14-25.21-8.42-32.63a25.68 25.68 0 0 0 -9.31-5.17l-81.82-25.28c-14.83-4.58-30.94 4.92-36 21.21-5 16.3 2.91 33.22 17.74 37.81z" fill="#f0a284"/><path d="m533.32 540.78a26.25 26.25 0 0 1 2.78 2.8l-12-8a25.81 25.81 0 0 1 9.22 5.2z" fill="#d85e66"/><path d="m504.14 529.47-22.63 57.65-57.51-17.78c-.62-.19-1.23-.41-1.83-.64-13.65-5.36-20.73-21.54-15.91-37.16 5-16.29 21.14-25.79 36-21.21l7.07 2.18z" fill="#06b781"/><rect fill="#38cea1" height="53.63" rx="7.58" transform="matrix(.31183747 -.95013546 .95013546 .31183747 -218.37 814.1)" width="15.15" x="445.28" y="530.99"/><path d="m627.77 206.76c0 .13.08.25.11.38a13.59 13.59 0 0 1 .51 2.63c2.67 28.67-80.46 79.51-190.71 115.84-110.54 36.42-207.83 44.9-222.32 20a13.17 13.17 0 0 1 -1.69-4.82c-4.27-28.51 79.36-80 190.6-116.61 111-36.58 208.69-45 222.51-19.68a13.25 13.25 0 0 1 .99 2.26z" fill="#ef8800"/><path d="m628.39 209.77c-9.59-15.79-35.28-21.8-61.06-13.3-25.07 8.25-41.91 27.53-41.33 45.44a26.45 26.45 0 0 0 1.32 7.5c-6.53-19.82-35-28.24-63.62-18.81-26.48 8.72-43.79 29.68-41 48.48a25.89 25.89 0 0 0 1 4.47 25.32 25.32 0 0 0 -1.41-3.44c-8.54-17.34-35.32-24.24-62.2-15.38-28.6 9.42-46.5 33.12-40 52.95a.11.11 0 0 1 0 0 26 26 0 0 0 -3.26-6.6c-10.09-15-35.17-20.48-60.33-12.18-25.69 8.46-42.73 28.41-41.22 46.75a13 13 0 0 1 -1.17-2.58c-.18-.74-.35-1.48-.52-2.23-15.31-66.94 16.34-138.34 77.5-185.84a256.87 256.87 0 0 1 75.58-40.37c2.73-.92 5.46-1.8 8.19-2.62 106.93-32.37 215.71 8 251.92 92.52.38.87.75 1.75 1.1 2.63a13.69 13.69 0 0 1 .51 2.61z" fill="#ffc300"/><path d="m631 215.47.08.21a1.87 1.87 0 0 0 -.08-.21z" fill="#ffc300"/><rect fill="#0d0f38" height="20.48" rx="10.24" transform="matrix(.90726434 -.42056083 .42056083 .90726434 -174.67 270.55)" width="40.17" x="506.19" y="521.17"/><circle cx="514.03" cy="545.95" fill="#0d0f38" r="20.02"/><rect fill="#0538a1" height="356.64" rx="4.87" transform="matrix(.95 -.33 .33 .95 -120.01 185.68)" width="9.75" x="490.66" y="273.59"/><rect fill="#0d0f38" height="26.26" rx="13.13" transform="matrix(.83532793 .54975199 -.54975199 .83532793 395.16 -212.93)" width="40.17" x="532.9" y="539.97"/><path d="m571.89 557.71c0-.16 0-.32 0-.47s0-.42 0-.63 0-.59 0-.89-.05-.41-.08-.61l-.09-.59c0-.18-.07-.35-.11-.52s-.1-.41-.16-.62-.08-.31-.13-.46q-.16-.51-.36-1c0-.11-.1-.21-.14-.32s-.22-.48-.34-.72l-.21-.38-.39-.65c-.07-.11-.14-.23-.22-.34-.21-.31-.43-.61-.67-.9l-.11-.13c-.22-.26-.44-.5-.67-.74l-.28-.27-.62-.56-.29-.25c-.32-.25-.64-.49-1-.71l-11.62-7.65a13.12 13.12 0 0 0 -20.34 10.83 12.88 12.88 0 0 1 1.91-4.68 13.12 13.12 0 0 1 18.18-3.75l11.62 7.65a8.86 8.86 0 0 1 3.9 7.84 13.11 13.11 0 0 1 -20.32 10.22l2.2 1.45a13 13 0 0 0 5.84 2.09 13.1 13.1 0 0 0 14.36-11.2c0-.14 0-.28.05-.41s.07-.41.09-.63z" fill="#1e297a"/><rect fill="#0d0f38" height="38.64" rx="19.32" transform="matrix(.83532793 .54975199 -.54975199 .83532793 407.65 -201.88)" width="52.41" x="514.59" y="560.16"/><rect fill="#1e297a" height="22.91" rx="11.45" transform="matrix(.83532793 .54975199 -.54975199 .83532793 405.68 -202.24)" width="31.07" x="524.87" y="564.56"/><path d="m470.75 539.92h52.68a9.16 9.16 0 0 1 9.16 9.16v38.79a0 0 0 0 1 0 0h-61.84a0 0 0 0 1 0 0v-47.95a0 0 0 0 1 0 0z" fill="#0d0f38" transform="matrix(-.3572271 .93401756 -.93401756 -.3572271 1207.56 296.74)"/><circle cx="524.45" cy="566.27" fill="#0d0f38" r="38.72"/><path d="m559.76 582.15a38.72 38.72 0 0 0 -72-28.18 38.72 38.72 0 1 1 72 28.18z" fill="#141a5b"/><rect fill="#141a5b" height="20.95" rx="10.48" transform="matrix(-.3572271 .93401756 -.93401756 -.3572271 1177.12 307.66)" width="80.74" x="442.32" y="548.4"/><path d="m503.57 528.55a10.42 10.42 0 0 1 -.41 6.15l-1 2.62a10.45 10.45 0 0 0 -6.06-13.47 10.49 10.49 0 0 0 -13.53 6l1-2.68a10.49 10.49 0 0 1 20 1.34z" fill="#1e297a"/><path d="m631 215.29v.18l-.38-1.1c.11.3.22.63.38.92z" fill="#ffc300"/><path d="m422.72 279.08-.36 1c-8.54-17.34-35.32-24.24-62.2-15.38-28.6 9.42-46.5 33.12-40 52.95a.11.11 0 0 1 0 0 26 26 0 0 0 -3.26-6.6c-10.09-15-35.17-20.48-60.33-12.18-25.69 8.46-42.73 28.41-41.22 46.75a13 13 0 0 1 -1.17-2.58c-.18-.74-.35-1.48-.52-2.23-15.38-66.91 16.27-138.31 77.43-185.81a256.87 256.87 0 0 1 75.58-40.37c2.73-.92 5.46-1.8 8.19-2.62-27.32 66.99 47.86 167.07 47.86 167.07z" fill="#ffab00"/><path d="m316.91 311c-10.09-15-35.17-20.48-60.33-12.18-25.69 8.46-42.73 28.41-41.22 46.75a13 13 0 0 1 -1.17-2.58c-.18-.74-.35-1.48-.52-2.23-15.39-66.86 16.26-138.26 77.42-185.76a256.87 256.87 0 0 1 75.58-40.37c2.73-.92 5.46-1.8 8.19-2.62-124.6 83.63-67.78 178.12-57.95 198.99z" fill="#ff9600"/><path d="m628.39 209.77c-9.59-15.79-35.28-21.8-61.06-13.3-25.07 8.25-41.91 27.53-41.33 45.44-5.6-26.4-33.1-114.28-151.14-129.91 106.93-32.37 215.71 8 251.92 92.52.38.87.75 1.75 1.1 2.63a13.69 13.69 0 0 1 .51 2.62z" fill="#ffd64f"/><circle cx="529.05" cy="484.78" fill="#01a171" r="6.18"/><circle cx="529.79" cy="486.32" fill="#06b781" r="4.51"/><path d="m531.59 488.65a2.94 2.94 0 0 1 -.44.42 3 3 0 0 1 -3.68-4.77 4 4 0 0 1 .53-.3 3 3 0 0 0 3.6 4.67z" fill="#01a171"/><path d="m526.94 483.76a4.12 4.12 0 0 1 .56-.54 3.85 3.85 0 0 1 4.7 6.09 3.8 3.8 0 0 1 -.66.41 3.85 3.85 0 0 0 -4.6-6z" fill="#38cea1"/><circle cx="530.32" cy="508.44" fill="#01a171" r="6.18"/><circle cx="531.06" cy="509.98" fill="#06b781" r="4.51"/><path d="m532.86 512.31a3.51 3.51 0 0 1 -.44.42 3 3 0 0 1 -3.68-4.76 2.54 2.54 0 0 1 .51-.32 3 3 0 0 0 3.61 4.66z" fill="#01a171"/><path d="m528.2 507.42a3.61 3.61 0 0 1 .57-.53 3.84 3.84 0 0 1 4.7 6.08 4.3 4.3 0 0 1 -.66.42 3.85 3.85 0 0 0 -4.61-6z" fill="#38cea1"/></svg>